<?xml version="1.0" encoding="UTF-8" standalone="no"?>
<svg xmlns:rdf="http://www.w3.org/1999/02/22-rdf-syntax-ns#" xmlns="http://www.w3.org/2000/svg" height="285pt" width="240pt" version="1.1" xmlns:cc="http://creativecommons.org/ns#" xmlns:dc="http://purl.org/dc/elements/1.1/" viewBox="0 0 240 285">
<path fill="#020201" d="m52.08 1.1c10.26-0.15 20.52-0.17 30.78-0.18 9.42 7.15 5.79 17.35 2.91 26.69 2.75 1.5 5.51 3 8.28 4.49-1.62 6.17-3.11 12.39-4.15 18.69 39.86 0.99 79.73 1.64 119.58 2.44 7.71 1.83 15.38 6.76 17.7 14.72 9.98 49.22 10.6 99.7 11.78 149.71-1.69 18.11-4.11 43.28-25.38 48.76 3.62 3.87 10.29 7.15 7.58 13.35-15.39 2.95-32.86 7.57-47.4-0.48-3.69-1.63-8.5-2.83-8.8-7.87-45.02-0.12-90.42 4.11-135.07-3.17-7.53-6.34-22.57-8.63-22.42-20.78-6.86-52.76-6.22-106.21-5.38-159.29 1.32-9.31 2.95-19.44 9.25-26.83 10.68-7.28 24.45-7.47 36.66-10.54-1.38-7.64-4.31-16.32 3.84-21.38 0.15-9.44 0.16-18.88 0.24-28.33m3.01 8.25c0.65 6.9 2.33 13.66 3.07 20.55 7.23 0.11 14.45 0.13 21.68 0.13 1.4-7.87 1.9-15.88 2.03-23.86-8.39 0.16-20.17-4.19-26.78 3.18m-0.64 28.84c-0.36 0.48-1.09 1.43-1.46 1.91 4.38 7.96 9.41 16.31 7.23 25.75 5.89-0.15 11.74-0.98 17.5-2.18 1.79-9.16 5.85-17.64 8.31-26.61-10.53 0.33-21.05 0.82-31.58 1.13m31.79 22.89c1.72 14.14-1.11 28.73 2.95 42.53 7.35 12.6 24.79 18.81 26.69 34.5 1.98 9.65 4.05 19.29 5.98 28.95 18.57-7.98 38.78 0.04 57 5.22 4.94 10.31-2.42 19.22-8.88 26.73 18.82-2.84 37.39 0.56 55.76 4.12-5.55-44.11 7.01-90.39-8.7-133.08-9.57-7.96-23.66-7.01-35.35-7.67-31.74-2.34-63.66-3.73-95.45-1.3m-60.43 2.68c-8.02 1.95-10 11.72-10.64 18.71-0.31 39.99-0.34 80 0.09 119.99 3.51-1.07 9.09-2.68 7.58-7.48-3.94-30.65 3.35-62.87 22.97-87.09 12.34-13.16 2.12-31.21 4.98-46.91-8.36 0.24-16.93 0.21-24.98 2.78m34.12 11.25c0.07 5.34 0.15 10.68 0.23 16.01 5.04-0.82 10.08-1.64 15.13-2.4 2.25-4.6 5.41-9.35 3.39-14.75-6.06-1.4-12.56 0.9-18.75 1.14m0.36 23.03c-5.48 15.76-19.01 26.99-24.34 42.9-12.72 31.13-3.79 64.99-0.17 96.99 14.6 6.65 31.19 5.13 46.78 4.96 10.76 0.11 21.1-4.43 28.53-12.13-0.84-33.69 5.45-68.8-6.31-101.3-6.59-12.14-22.15-18.97-23.22-34.04-7.15 0.09-14.3 1.07-21.27 2.62m63.54 75.09c0.08 0.73 0.22 2.18 0.3 2.91 14.72-0.81 29.4 1.39 44.12 0.68 1.36-0.73 4.07-1.41 2.53-3.37-15.37-4.3-32.8-11.14-46.95-0.22m-2.99 7.03c3.26 8.91 9.79 15.42 17.83 20.25 3.41 8.78 2.6 18.74 3.09 28-4.01 2.45-7.62 5.73-8.93 10.41 11.79-1.11 25.28 3.5 36.1-2.5-5.14-3.08-10.2-6.27-15.16-9.62 0.46-9.21 0.32-18.51 1.93-27.6 6.8-5.94 14.27-11.3 19.49-18.89-18.11-0.45-36.24-0.27-54.35-0.05m-0.53 18.7c-2.41 15.73 0.68 35.06-13.83 45.77-24.95 11.33-52.96 5.12-78.22-1.6-11.58-6.93-2.28-24.95-5.49-35.7-2.55-0.04-5.11-0.06-7.66-0.06 1.17 14.39 1.38 28.92 3.03 43.22 7.49 15.15 28.11 3.95 41.02 8.22 24.65 6.32 49.84 0.05 74.83 1.25 16.1-0.2 32.3 1.02 48.31-1.13-0.42-6.2-1.5-12.31-3.11-18.3-14.99 8.04-32.67 3.38-48.85 4.32-2.78-2.78-5.64-5.49-8.51-8.18 5.14-8.05 15.63-14.5 13.19-25.37 0.99-8.21-8.91-9.84-14.71-12.44m49.11 12.85c15.47 4.07 33.21 3.64 48.06-2.81-14.99-6.62-34.06-5.98-48.06 2.81m-0.58 7.47c1.15 8.53 9.82 11.77 16.13 16.05 2.47 8.96 7.21 18.69 2.11 27.67-0.05 8.64-10.91 6.65-14.24 11.95 13.31 3.86 30.77 6.85 42.8-0.37-5.45-1.62-10.98-3.38-14.92-7.8 0.26-9.57-0.05-19.14 0.46-28.69 6.72-5.67 12.35-12.39 16.83-19.98-16.27 3.04-32.76 1.67-49.17 1.17m38.39 29.18c-0.35 2.7 0.93 7.35 4.47 6.55 10.04-3.14 14.99-14.03 15.17-23.89-8.83 2.44-16.2 8.8-19.64 17.34z"/>
<path fill="#fbedd2" d="m55.09 9.35c6.61-7.37 18.39-3.02 26.78-3.18-0.13 7.98-0.63 15.99-2.03 23.86-7.23 0-14.45-0.02-21.68-0.13-0.74-6.89-2.42-13.65-3.07-20.55m4.93 1.69c-0.01 1.31-0.01 2.61 0 3.92 1.23-0.09 2.47-0.17 3.71-0.26 0.01-1.13 0.01-2.27 0-3.4-1.24-0.09-2.48-0.17-3.71-0.26m11.88 2.18c0.14 0.61 0.41 1.81 0.54 2.42 1.2 0.09 2.4 0.19 3.61 0.27l-0.81-4.05c-1.11 0.46-2.22 0.91-3.34 1.36m-7.9 7.73c0.09 0.68 0.26 2.04 0.35 2.72 1.22 0.13 2.44 0.25 3.66 0.38l-0.08-3c-1.31-0.03-2.62-0.07-3.93-0.1z"/>
<path fill="#76543f" d="m60.02 11.04c1.23 0.09 2.47 0.17 3.71 0.26 0.01 1.13 0.01 2.27 0 3.4-1.24 0.09-2.48 0.17-3.71 0.26-0.01-1.31-0.01-2.61 0-3.92z"/>
<path fill="#6b4837" d="m71.9 13.22c1.12-0.45 2.23-0.9 3.34-1.36l0.81 4.05c-1.21-0.08-2.41-0.18-3.61-0.27-0.13-0.61-0.4-1.81-0.54-2.42z"/>
<path fill="#663b2c" d="m64 20.95c1.31 0.03 2.62 0.07 3.93 0.1l0.08 3c-1.22-0.13-2.44-0.25-3.66-0.38-0.09-0.68-0.26-2.04-0.35-2.72z"/>
<path fill="#fb9db9" d="m54.45 38.19c10.53-0.31 21.05-0.8 31.58-1.13-2.46 8.97-6.52 17.45-8.31 26.61-5.76 1.2-11.61 2.03-17.5 2.18 2.18-9.44-2.85-17.79-7.23-25.75 0.37-0.48 1.1-1.43 1.46-1.91z"/>
<path fill="#e3ffd3" d="m86.24 61.08c31.79-2.43 63.71-1.04 95.45 1.3 11.69 0.66 25.78-0.29 35.35 7.67 15.71 42.69 3.15 88.97 8.7 133.08-18.37-3.56-36.94-6.96-55.76-4.12 6.46-7.51 13.82-16.42 8.88-26.73-18.22-5.18-38.43-13.2-57-5.22-1.93-9.66-4-19.3-5.98-28.95-1.9-15.69-19.34-21.9-26.69-34.5-4.06-13.8-1.23-28.39-2.95-42.53m97.56 14.81c-0.79 3.55-1.43 7.14-1.73 10.77 2.96 0.12 5.87 0.15 8.85 0.23 0.05-2.48 0.09-4.96 0.14-7.44-2.43-1.18-4.85-2.37-7.26-3.56m-58.81 40.1c6.49 5.62 6.21 15.37 11.83 21.36 5.44-19.86-9.05-39.23-26.23-47.42-3.89 12 8.77 17.82 14.4 26.06m18.28 4.9c1.28-0.13 2.56-0.27 3.84-0.41 0.8-11.24-6.41-20.78-14.32-27.88-6.32 9.8 8.5 18.76 10.48 28.29m60.27-13.07c1.44-1.43 4.34-4.29 5.78-5.72-5.91-0.62-10.5 0.54-5.78 5.72m-27.67-1.87c-2.55 7.71 5.41 7.37 6.8 2.01-2.27-0.68-4.54-1.34-6.8-2.01z"/>
<path fill="#e3fed3" d="m25.81 63.76c8.05-2.57 16.62-2.54 24.98-2.78-2.86 15.7 7.36 33.75-4.98 46.91-19.62 24.22-26.91 56.44-22.97 87.09 1.51 4.8-4.07 6.41-7.58 7.48-0.43-39.99-0.4-80-0.09-119.99 0.64-6.99 2.62-16.76 10.64-18.71m2.27 16.08c-0.25 4.25-0.52 8.49-0.68 12.74 4.23-1.57 5.81-6.1 7.93-9.71-2.42-0.99-4.84-2-7.25-3.03z"/>
<path fill="#f97805" d="m59.93 75.01c6.19-0.24 12.69-2.54 18.75-1.14 2.02 5.4-1.14 10.15-3.39 14.75-5.05 0.76-10.09 1.58-15.13 2.4-0.08-5.33-0.16-10.67-0.23-16.01z"/>
<path fill="#010702" d="m183.8 75.89c2.41 1.19 4.83 2.38 7.26 3.56-0.05 2.48-0.09 4.96-0.14 7.44-2.98-0.08-5.89-0.11-8.85-0.23 0.3-3.63 0.94-7.22 1.73-10.77z"/>
<path fill="#020901" d="m28.08 79.84c2.41 1.03 4.83 2.04 7.25 3.03-2.12 3.61-3.7 8.14-7.93 9.71 0.16-4.25 0.43-8.49 0.68-12.74z"/>
<path fill="#010302" d="m124.99 115.99c-5.63-8.24-18.29-14.06-14.4-26.06 17.18 8.19 31.67 27.56 26.23 47.42-5.62-5.99-5.34-15.74-11.83-21.36z"/>
<path fill="#020502" d="m143.27 120.89c-1.98-9.53-16.8-18.49-10.48-28.29 7.91 7.1 15.12 16.64 14.32 27.88-1.28 0.14-2.56 0.28-3.84 0.41z"/>
<path fill="#fb9db9" d="m60.29 98.04c6.97-1.55 14.12-2.53 21.27-2.62 1.07 15.07 16.63 21.9 23.22 34.04 11.76 32.5 5.47 67.61 6.31 101.3-7.43 7.7-17.77 12.24-28.53 12.13-15.59 0.17-32.18 1.69-46.78-4.96-3.62-32-12.55-65.86 0.17-96.99 5.33-15.91 18.86-27.14 24.34-42.9m13.11 30.63c-1.1 4.19-2.14 8.4-3.27 12.58l3-0.12c0.55-4.08 7.54-11.56 0.27-12.46m-20.63 6.89c-0.62 3.94 0.36 6.76 4.33 6.92 2.5-4.7-1.83-5.41-4.33-6.92m30.98 13.56c0.56 2.81 1.11 5.61 1.68 8.43 1.17 0.14 2.35 0.27 3.52 0.4 0.36-2.2 0.72-4.4 1.04-6.61-2.09-0.72-4.17-1.47-6.24-2.22m-43.71 17.59c-4.48 19.79-0.05 40.06-0.92 60.08 19.81 3.28 39.74 7.55 59.91 4.31 1.2-1.54 3.6-4.63 4.81-6.18-3.54-19.48 3.79-40.01-2.38-58.97-19.96 5.84-41.06 5.05-61.42 0.76z"/>
<path fill="#071603" d="m203.54 107.82c-4.72-5.18-0.13-6.34 5.78-5.72-1.44 1.43-4.34 4.29-5.78 5.72z"/>
<path fill="#020d00" d="m175.87 105.95c2.26 0.67 4.53 1.33 6.8 2.01-1.39 5.36-9.35 5.7-6.8-2.01z"/>
<path fill="#1c0106" d="m73.4 128.67c7.27 0.9 0.28 8.38-0.27 12.46l-3 0.12c1.13-4.18 2.17-8.39 3.27-12.58z"/>
<path fill="#1c0105" d="m52.77 135.56c2.5 1.51 6.83 2.22 4.33 6.92-3.97-0.16-4.95-2.98-4.33-6.92z"/>
<path fill="#180104" d="m83.75 149.12c2.07 0.75 4.15 1.5 6.24 2.22-0.32 2.21-0.68 4.41-1.04 6.61-1.17-0.13-2.35-0.26-3.52-0.4-0.57-2.82-1.12-5.62-1.68-8.43z"/>
<path fill="#070101" d="m40.04 166.71c20.36 4.29 41.46 5.08 61.42-0.76 6.17 18.96-1.16 39.49 2.38 58.97-1.21 1.55-3.61 4.64-4.81 6.18-20.17 3.24-40.1-1.03-59.91-4.31 0.87-20.02-3.56-40.29 0.92-60.08m8.97 8.29c0.13 14.41-0.44 28.83 0.09 43.23 0.63 3.85 6.1 2.83 8.59 3.51 12.6 0.69 25.51 0.92 37.76-2.64 0.66-14.72 2.33-29.37 3.61-44.04-16.69-0.13-33.37-0.07-50.05-0.06z"/>
<path fill="#f20550" d="m123.83 173.13c14.15-10.92 31.58-4.08 46.95 0.22 1.54 1.96-1.17 2.64-2.53 3.37-14.72 0.71-29.4-1.49-44.12-0.68-0.08-0.73-0.22-2.18-0.3-2.91z"/>
<path fill="#cd7324" d="m49.01 175c16.68-0.01 33.36-0.07 50.05 0.06-1.28 14.67-2.95 29.32-3.61 44.04-12.25 3.56-25.16 3.33-37.76 2.64-2.49-0.68-7.96 0.34-8.59-3.51-0.53-14.4 0.04-28.82-0.09-43.23m1.21 1.23c-0.4 14.13-0.38 28.26 0.05 42.39 14.04 3.27 28.88 3.37 42.8-0.57 3.02-13.74 3.19-27.93 3.98-41.93-15.61-0.23-31.22-0.28-46.83 0.11z"/>
<path fill="#fe7900" d="m50.22 176.23c15.61-0.39 31.22-0.34 46.83-0.11-0.79 14-0.96 28.19-3.98 41.93-13.92 3.94-28.76 3.84-42.8 0.57-0.43-14.13-0.45-28.26-0.05-42.39z"/>
<path fill="#fbd0dc" d="m120.84 180.16c18.11-0.22 36.24-0.4 54.35 0.05-5.22 7.59-12.69 12.95-19.49 18.89-1.61 9.09-1.47 18.39-1.93 27.6 4.96 3.35 10.02 6.54 15.16 9.62-10.82 6-24.31 1.39-36.1 2.5 1.31-4.68 4.92-7.96 8.93-10.41-0.49-9.26 0.32-19.22-3.09-28-8.04-4.83-14.57-11.34-17.83-20.25z"/>
<path fill="#fbdd9c" d="m120.31 198.86c5.8 2.6 15.7 4.23 14.71 12.44 2.44 10.87-8.05 17.32-13.19 25.37 2.87 2.69 5.73 5.4 8.51 8.18 16.18-0.94 33.86 3.72 48.85-4.32 1.61 5.99 2.69 12.1 3.11 18.3-16.01 2.15-32.21 0.93-48.31 1.13-24.99-1.2-50.18 5.07-74.83-1.25-12.91-4.27-33.53 6.93-41.02-8.22-1.65-14.3-1.86-28.83-3.03-43.22 2.55 0 5.11 0.02 7.66 0.06 3.21 10.75-6.09 28.77 5.49 35.7 25.26 6.72 53.27 12.93 78.22 1.6 14.51-10.71 11.42-30.04 13.83-45.77z"/>
<path fill="#f40450" d="m169.42 211.71c14-8.79 33.07-9.43 48.06-2.81-14.85 6.45-32.59 6.88-48.06 2.81z"/>
<path fill="#fbd1dc" d="m168.84 219.18c16.41 0.5 32.9 1.87 49.17-1.17-4.48 7.59-10.11 14.31-16.83 19.98-0.51 9.55-0.2 19.12-0.46 28.69 3.94 4.42 9.47 6.18 14.92 7.8-12.03 7.22-29.49 4.23-42.8 0.37 3.33-5.3 14.19-3.31 14.24-11.95 5.1-8.98 0.36-18.71-2.11-27.67-6.31-4.28-14.98-7.52-16.13-16.05z"/>
<path fill="#f9dd9d" d="m207.23 248.36c3.44-8.54 10.81-14.9 19.64-17.34-0.18 9.86-5.13 20.75-15.17 23.89-3.54 0.8-4.82-3.85-4.47-6.55z"/>
<path d="m52.08 1.1c10.26-0.15 20.52-0.17 30.78-0.18 9.42 7.15 5.79 17.35 2.91 26.69 2.75 1.5 5.51 3 8.28 4.49-1.62 6.17-3.11 12.39-4.15 18.69 39.86 0.99 79.73 1.64 119.58 2.44 7.71 1.83 15.38 6.76 17.7 14.72 9.98 49.22 10.6 99.7 11.78 149.71-1.69 18.11-4.11 43.28-25.38 48.76 3.62 3.87 10.29 7.15 7.58 13.35-15.39 2.95-32.86 7.57-47.4-0.48-3.69-1.63-8.5-2.83-8.8-7.87-45.02-0.12-90.42 4.11-135.07-3.17-7.53-6.34-22.57-8.63-22.42-20.78-6.86-52.76-6.22-106.21-5.38-159.29 1.32-9.31 2.95-19.44 9.25-26.83 10.68-7.28 24.45-7.47 36.66-10.54-1.38-7.64-4.31-16.32 3.84-21.38 0.15-9.44 0.16-18.88 0.24-28.33m3.01 8.25c0.65 6.9 2.33 13.66 3.07 20.55 7.23 0.11 14.45 0.13 21.68 0.13 1.4-7.87 1.9-15.88 2.03-23.86-8.39 0.16-20.17-4.19-26.78 3.18m-0.64 28.84c-0.36 0.48-1.09 1.43-1.46 1.91 4.38 7.96 9.41 16.31 7.23 25.75 5.89-0.15 11.74-0.98 17.5-2.18 1.79-9.16 5.85-17.64 8.31-26.61-10.53 0.33-21.05 0.82-31.58 1.13m31.79 22.89c1.72 14.14-1.11 28.73 2.95 42.53 7.35 12.6 24.79 18.81 26.69 34.5 1.98 9.65 4.05 19.29 5.98 28.95 18.57-7.98 38.78 0.04 57 5.22 4.94 10.31-2.42 19.22-8.88 26.73 18.82-2.84 37.39 0.56 55.76 4.12-5.55-44.11 7.01-90.39-8.7-133.08-9.57-7.96-23.66-7.01-35.35-7.67-31.74-2.34-63.66-3.73-95.45-1.3m-60.43 2.68c-8.02 1.95-10 11.72-10.64 18.71-0.31 39.99-0.34 80 0.09 119.99 3.51-1.07 9.09-2.68 7.58-7.48-3.94-30.65 3.35-62.87 22.97-87.09 12.34-13.16 2.12-31.21 4.98-46.91-8.36 0.24-16.93 0.21-24.98 2.78m34.12 11.25c0.07 5.34 0.15 10.68 0.23 16.01 5.04-0.82 10.08-1.64 15.13-2.4 2.25-4.6 5.41-9.35 3.39-14.75-6.06-1.4-12.56 0.9-18.75 1.14m0.36 23.03c-5.48 15.76-19.01 26.99-24.34 42.9-12.72 31.13-3.79 64.99-0.17 96.99 14.6 6.65 31.19 5.13 46.78 4.96 10.76 0.11 21.1-4.43 28.53-12.13-0.84-33.69 5.45-68.8-6.31-101.3-6.59-12.14-22.15-18.97-23.22-34.04-7.15 0.09-14.3 1.07-21.27 2.62m63.54 75.09c0.08 0.73 0.22 2.18 0.3 2.91 14.72-0.81 29.4 1.39 44.12 0.68 1.36-0.73 4.07-1.41 2.53-3.37-15.37-4.3-32.8-11.14-46.95-0.22m-2.99 7.03c3.26 8.91 9.79 15.42 17.83 20.25 3.41 8.78 2.6 18.74 3.09 28-4.01 2.45-7.62 5.73-8.93 10.41 11.79-1.11 25.28 3.5 36.1-2.5-5.14-3.08-10.2-6.27-15.16-9.62 0.46-9.21 0.32-18.51 1.93-27.6 6.8-5.94 14.27-11.3 19.49-18.89-18.11-0.45-36.24-0.27-54.35-0.05m-0.53 18.7c-2.41 15.73 0.68 35.06-13.83 45.77-24.95 11.33-52.96 5.12-78.22-1.6-11.58-6.93-2.28-24.95-5.49-35.7-2.55-0.04-5.11-0.06-7.66-0.06 1.17 14.39 1.38 28.92 3.03 43.22 7.49 15.15 28.11 3.95 41.02 8.22 24.65 6.32 49.84 0.05 74.83 1.25 16.1-0.2 32.3 1.02 48.31-1.13-0.42-6.2-1.5-12.31-3.11-18.3-14.99 8.04-32.67 3.38-48.85 4.32-2.78-2.78-5.64-5.49-8.51-8.18 5.14-8.05 15.63-14.5 13.19-25.37 0.99-8.21-8.91-9.84-14.71-12.44m49.11 12.85c15.47 4.07 33.21 3.64 48.06-2.81-14.99-6.62-34.06-5.98-48.06 2.81m-0.58 7.47c1.15 8.53 9.82 11.77 16.13 16.05 2.47 8.96 7.21 18.69 2.11 27.67-0.05 8.64-10.91 6.65-14.24 11.95 13.31 3.86 30.77 6.85 42.8-0.37-5.45-1.62-10.98-3.38-14.92-7.8 0.26-9.57-0.05-19.14 0.46-28.69 6.72-5.67 12.35-12.39 16.83-19.98-16.27 3.04-32.76 1.67-49.17 1.17m38.39 29.18c-0.35 2.7 0.93 7.35 4.47 6.55 10.04-3.14 14.99-14.03 15.17-23.89-8.83 2.44-16.2 8.8-19.64 17.34z" fill="#020201"/>
<path d="m55.09 9.35c6.61-7.37 18.39-3.02 26.78-3.18-0.13 7.98-0.63 15.99-2.03 23.86-7.23 0-14.45-0.02-21.68-0.13-0.74-6.89-2.42-13.65-3.07-20.55m4.93 1.69c-0.01 1.31-0.01 2.61 0 3.92 1.23-0.09 2.47-0.17 3.71-0.26 0.01-1.13 0.01-2.27 0-3.4-1.24-0.09-2.48-0.17-3.71-0.26m11.88 2.18c0.14 0.61 0.41 1.81 0.54 2.42 1.2 0.09 2.4 0.19 3.61 0.27l-0.81-4.05c-1.11 0.46-2.22 0.91-3.34 1.36m-7.9 7.73c0.09 0.68 0.26 2.04 0.35 2.72 1.22 0.13 2.44 0.25 3.66 0.38l-0.08-3c-1.31-0.03-2.62-0.07-3.93-0.1z" fill="#fbedd2"/>
<path d="m60.02 11.04c1.23 0.09 2.47 0.17 3.71 0.26 0.01 1.13 0.01 2.27 0 3.4-1.24 0.09-2.48 0.17-3.71 0.26-0.01-1.31-0.01-2.61 0-3.92z" fill="#76543f"/>
<path d="m71.9 13.22c1.12-0.45 2.23-0.9 3.34-1.36l0.81 4.05c-1.21-0.08-2.41-0.18-3.61-0.27-0.13-0.61-0.4-1.81-0.54-2.42z" fill="#6b4837"/>
<path d="m64 20.95c1.31 0.03 2.62 0.07 3.93 0.1l0.08 3c-1.22-0.13-2.44-0.25-3.66-0.38-0.09-0.68-0.26-2.04-0.35-2.72z" fill="#663b2c"/>
<path d="m54.45 38.19c10.53-0.31 21.05-0.8 31.58-1.13-2.46 8.97-6.52 17.45-8.31 26.61-5.76 1.2-11.61 2.03-17.5 2.18 2.18-9.44-2.85-17.79-7.23-25.75 0.37-0.48 1.1-1.43 1.46-1.91z" fill="#fb9db9"/>
<path d="m86.24 61.08c31.79-2.43 63.71-1.04 95.45 1.3 11.69 0.66 25.78-0.29 35.35 7.67 15.71 42.69 3.15 88.97 8.7 133.08-18.37-3.56-36.94-6.96-55.76-4.12 6.46-7.51 13.82-16.42 8.88-26.73-18.22-5.18-38.43-13.2-57-5.22-1.93-9.66-4-19.3-5.98-28.95-1.9-15.69-19.34-21.9-26.69-34.5-4.06-13.8-1.23-28.39-2.95-42.53m97.56 14.81c-0.79 3.55-1.43 7.14-1.73 10.77 2.96 0.12 5.87 0.15 8.85 0.23 0.05-2.48 0.09-4.96 0.14-7.44-2.43-1.18-4.85-2.37-7.26-3.56m-58.81 40.1c6.49 5.62 6.21 15.37 11.83 21.36 5.44-19.86-9.05-39.23-26.23-47.42-3.89 12 8.77 17.82 14.4 26.06m18.28 4.9c1.28-0.13 2.56-0.27 3.84-0.41 0.8-11.24-6.41-20.78-14.32-27.88-6.32 9.8 8.5 18.76 10.48 28.29m60.27-13.07c1.44-1.43 4.34-4.29 5.78-5.72-5.91-0.62-10.5 0.54-5.78 5.72m-27.67-1.87c-2.55 7.71 5.41 7.37 6.8 2.01-2.27-0.68-4.54-1.34-6.8-2.01z" fill="#e3ffd3"/>
<path d="m25.81 63.76c8.05-2.57 16.62-2.54 24.98-2.78-2.86 15.7 7.36 33.75-4.98 46.91-19.62 24.22-26.91 56.44-22.97 87.09 1.51 4.8-4.07 6.41-7.58 7.48-0.43-39.99-0.4-80-0.09-119.99 0.64-6.99 2.62-16.76 10.64-18.71m2.27 16.08c-0.25 4.25-0.52 8.49-0.68 12.74 4.23-1.57 5.81-6.1 7.93-9.71-2.42-0.99-4.84-2-7.25-3.03z" fill="#e3fed3"/>
<path d="m59.93 75.01c6.19-0.24 12.69-2.54 18.75-1.14 2.02 5.4-1.14 10.15-3.39 14.75-5.05 0.76-10.09 1.58-15.13 2.4-0.08-5.33-0.16-10.67-0.23-16.01z" fill="#f97805"/>
<path d="m183.8 75.89c2.41 1.19 4.83 2.38 7.26 3.56-0.05 2.48-0.09 4.96-0.14 7.44-2.98-0.08-5.89-0.11-8.85-0.23 0.3-3.63 0.94-7.22 1.73-10.77z" fill="#010702"/>
<path d="m28.08 79.84c2.41 1.03 4.83 2.04 7.25 3.03-2.12 3.61-3.7 8.14-7.93 9.71 0.16-4.25 0.43-8.49 0.68-12.74z" fill="#020901"/>
<path d="m124.99 115.99c-5.63-8.24-18.29-14.06-14.4-26.06 17.18 8.19 31.67 27.56 26.23 47.42-5.62-5.99-5.34-15.74-11.83-21.36z" fill="#010302"/>
<path d="m143.27 120.89c-1.98-9.53-16.8-18.49-10.48-28.29 7.91 7.1 15.12 16.64 14.32 27.88-1.28 0.14-2.56 0.28-3.84 0.41z" fill="#020502"/>
<path d="m60.29 98.04c6.97-1.55 14.12-2.53 21.27-2.62 1.07 15.07 16.63 21.9 23.22 34.04 11.76 32.5 5.47 67.61 6.31 101.3-7.43 7.7-17.77 12.24-28.53 12.13-15.59 0.17-32.18 1.69-46.78-4.96-3.62-32-12.55-65.86 0.17-96.99 5.33-15.91 18.86-27.14 24.34-42.9m13.11 30.63c-1.1 4.19-2.14 8.4-3.27 12.58l3-0.12c0.55-4.08 7.54-11.56 0.27-12.46m-20.63 6.89c-0.62 3.94 0.36 6.76 4.33 6.92 2.5-4.7-1.83-5.41-4.33-6.92m30.98 13.56c0.56 2.81 1.11 5.61 1.68 8.43 1.17 0.14 2.35 0.27 3.52 0.4 0.36-2.2 0.72-4.4 1.04-6.61-2.09-0.72-4.17-1.47-6.24-2.22m-43.71 17.59c-4.48 19.79-0.05 40.06-0.92 60.08 19.81 3.28 39.74 7.55 59.91 4.31 1.2-1.54 3.6-4.63 4.81-6.18-3.54-19.48 3.79-40.01-2.38-58.97-19.96 5.84-41.06 5.05-61.42 0.76z" fill="#fb9db9"/>
<path d="m203.54 107.82c-4.72-5.18-0.13-6.34 5.78-5.72-1.44 1.43-4.34 4.29-5.78 5.72z" fill="#071603"/>
<path d="m175.87 105.95c2.26 0.67 4.53 1.33 6.8 2.01-1.39 5.36-9.35 5.7-6.8-2.01z" fill="#020d00"/>
<path d="m73.4 128.67c7.27 0.9 0.28 8.38-0.27 12.46l-3 0.12c1.13-4.18 2.17-8.39 3.27-12.58z" fill="#1c0106"/>
<path d="m52.77 135.56c2.5 1.51 6.83 2.22 4.33 6.92-3.97-0.16-4.95-2.98-4.33-6.92z" fill="#1c0105"/>
<path d="m83.75 149.12c2.07 0.75 4.15 1.5 6.24 2.22-0.32 2.21-0.68 4.41-1.04 6.61-1.17-0.13-2.35-0.26-3.52-0.4-0.57-2.82-1.12-5.62-1.68-8.43z" fill="#180104"/>
<path d="m40.04 166.71c20.36 4.29 41.46 5.08 61.42-0.76 6.17 18.96-1.16 39.49 2.38 58.97-1.21 1.55-3.61 4.64-4.81 6.18-20.17 3.24-40.1-1.03-59.91-4.31 0.87-20.02-3.56-40.29 0.92-60.08m8.97 8.29c0.13 14.41-0.44 28.83 0.09 43.23 0.63 3.85 6.1 2.83 8.59 3.51 12.6 0.69 25.51 0.92 37.76-2.64 0.66-14.72 2.33-29.37 3.61-44.04-16.69-0.13-33.37-0.07-50.05-0.06z" fill="#070101"/>
<path d="m123.83 173.13c14.15-10.92 31.58-4.08 46.95 0.22 1.54 1.96-1.17 2.64-2.53 3.37-14.72 0.71-29.4-1.49-44.12-0.68-0.08-0.73-0.22-2.18-0.3-2.91z" fill="#f20550"/>
<path d="m49.01 175c16.68-0.01 33.36-0.07 50.05 0.06-1.28 14.67-2.95 29.32-3.61 44.04-12.25 3.56-25.16 3.33-37.76 2.64-2.49-0.68-7.96 0.34-8.59-3.51-0.53-14.4 0.04-28.82-0.09-43.23m1.21 1.23c-0.4 14.13-0.38 28.26 0.05 42.39 14.04 3.27 28.88 3.37 42.8-0.57 3.02-13.74 3.19-27.93 3.98-41.93-15.61-0.23-31.22-0.28-46.83 0.11z" fill="#cd7324"/>
<path d="m50.22 176.23c15.61-0.39 31.22-0.34 46.83-0.11-0.79 14-0.96 28.19-3.98 41.93-13.92 3.94-28.76 3.84-42.8 0.57-0.43-14.13-0.45-28.26-0.05-42.39z" fill="#fe7900"/>
<path d="m120.84 180.16c18.11-0.22 36.24-0.4 54.35 0.05-5.22 7.59-12.69 12.95-19.49 18.89-1.61 9.09-1.47 18.39-1.93 27.6 4.96 3.35 10.02 6.54 15.16 9.62-10.82 6-24.31 1.39-36.1 2.5 1.31-4.68 4.92-7.96 8.93-10.41-0.49-9.26 0.32-19.22-3.09-28-8.04-4.83-14.57-11.34-17.83-20.25z" fill="#fbd0dc"/>
<path d="m120.31 198.86c5.8 2.6 15.7 4.23 14.71 12.44 2.44 10.87-8.05 17.32-13.19 25.37 2.87 2.69 5.73 5.4 8.51 8.18 16.18-0.94 33.86 3.72 48.85-4.32 1.61 5.99 2.69 12.1 3.11 18.3-16.01 2.15-32.21 0.93-48.31 1.13-24.99-1.2-50.18 5.07-74.83-1.25-12.91-4.27-33.53 6.93-41.02-8.22-1.65-14.3-1.86-28.83-3.03-43.22 2.55 0 5.11 0.02 7.66 0.06 3.21 10.75-6.09 28.77 5.49 35.7 25.26 6.72 53.27 12.93 78.22 1.6 14.51-10.71 11.42-30.04 13.83-45.77z" fill="#fbdd9c"/>
<path d="m169.42 211.71c14-8.79 33.07-9.43 48.06-2.81-14.85 6.45-32.59 6.88-48.06 2.81z" fill="#f40450"/>
<path d="m168.84 219.18c16.41 0.5 32.9 1.87 49.17-1.17-4.48 7.59-10.11 14.31-16.83 19.98-0.51 9.55-0.2 19.12-0.46 28.69 3.94 4.42 9.47 6.18 14.92 7.8-12.03 7.22-29.49 4.23-42.8 0.37 3.33-5.3 14.19-3.31 14.24-11.95 5.1-8.98 0.36-18.71-2.11-27.67-6.31-4.28-14.98-7.52-16.13-16.05z" fill="#fbd1dc"/>
<path d="m207.23 248.36c3.44-8.54 10.81-14.9 19.64-17.34-0.18 9.86-5.13 20.75-15.17 23.89-3.54 0.8-4.82-3.85-4.47-6.55z" fill="#f9dd9d"/>
</svg>
