<?xml version="1.0" encoding="UTF-8" standalone="no"?>
<svg xmlns:rdf="http://www.w3.org/1999/02/22-rdf-syntax-ns#" xmlns="http://www.w3.org/2000/svg" height="249pt" width="283pt" version="1.1" xmlns:cc="http://creativecommons.org/ns#" xmlns:dc="http://purl.org/dc/elements/1.1/" viewBox="0 0 283 249">
<path fill="#010101" d="m41.69 4.56c47.93-7.41 96.34 1.32 144.47-2.45 27.12-2.39 56.09 0.4 79.64 15.12 30.01 65.3 7.12 138.28 14.11 206.78-8.2 10.92-21.94 12.06-33.43 17.55-41.34 8.85-83.93 3.76-125.82 6.15-20.77-0.04-42.1 2.47-62.42-3.11-11-2.5-24.3-2.38-32.17-11.8-21.99-35.71 1.97-79.56-13.96-116.86-4.75-9.36-10.41-25.56 2.84-29.63-0.07-3.94-0.19-7.88-0.34-11.82-4.8 0.05-8.92-2.45-13.14-4.35 6.31-11.38 18.9-20.85 17.5-35.09-0.96-13.78 8.65-28.41 22.72-30.49m9.81 12.38c-9.21 7.91-14.38 19.84-15.58 31.76 3.74 0.77 8.3 2.42 11.7-0.06 2.18-10.36 7.15-22.62 18.37-25.71 6.92-1.04 12.85-4.51 18.16-8.88-10.9 0.56-21.93 0.6-32.65 2.89m16.63 14.13c-8.68 6.42-17.19 17.55-9.84 28.02 10.28-0.08 20.79-0.63 30.56-4.08 10.54-9.52 29.47-29.17 10.83-40.58-8.74 8.57-21.18 10.8-31.55 16.64m47.58-14.87c-1.24 10.85-1.26 21.94-3.54 32.63-9.99 8.73-21.59 15.56-32.33 23.36 2.43 11.09 4.26 22.45 1.32 33.63 16.3 1.3 26.53 16.25 36.84 27.18 34.86 40.64 83.24 73.96 138.41 75.68 7.27-51.83-4.42-103.94-0.61-155.91 0.02-11.1-4.22-22.88-13.3-29.72-41.39-11.41-84.93-2.29-126.79-6.85m-102.83 49.52c17.88 1.49 37.24 2.66 52.39 13.07 3.4 10.56 2.99 22 3.77 32.99 1.61-0.21 3.21-0.41 4.81-0.6 4.79-12.2 2.57-26.4-1.38-38.52-5.44-6.84-14.86-9.36-23.08-11.01-9.44-1.56-17.4-7.66-27.02-8.62-4.3 3.22-6.54 8.35-9.49 12.69m1.18 34.31c2.19 9.69 5.69 20.65 17.39 21.94 21.02 1.29 31.58-23.86 28.53-41.77-18.98-2.34-28.24 18.38-45.92 19.83m60.51 16.36c-10.68 0.56-14.15 12.35-20.65 18.86-3.79 12.92-0.01 27.08 8.49 37.34 31.19 34.85 75.98 59.32 123.42 59.45 26.18 1.58 53.87 4.01 78.64-6.45 1.84-1.04 2.11-3.31 2.89-5.08-21.35-3.71-41.94-13-63.68-13.19-2.7 4.79-4.83 11.65-11.38 12.04 1.33-5.89 3.47-11.66 3.53-17.78-12.7-6.65-24.05-15.89-37.51-21.04-9.97-3.25-11.57 9.22-19.05 11.72-0.67-7.78 6.18-12.76 10.07-18.49-8.9-9.58-18.61-18.35-27.96-27.48-11.02-0.7-14.56 12.7-23.16 16.82-0.31-10.53 10.88-14.6 16.6-21.64 1.41-6.79-7.07-8.59-10.79-12.51-9.2-5.64-17.23-18.15-29.46-12.57m-37.28 15.09c0.55 27.19-5.53 56.23 5.03 82.13 22.96 19.01 54.94 15.98 82.81 15.91-24.02-13.11-44.39-31.81-64.87-49.75-15.02-13.31-20.55-35.55-12.34-54.06-3.58 1.85-7.09 3.83-10.63 5.77z"/>
<path fill="#caccf8" d="m51.5 16.94c10.72-2.29 21.75-2.33 32.65-2.89-5.31 4.37-11.24 7.84-18.16 8.88-11.22 3.09-16.19 15.35-18.37 25.71-3.4 2.48-7.96 0.83-11.7 0.06 1.2-11.92 6.37-23.85 15.58-31.76z"/>
<path fill="#04fc05" d="m68.13 31.07c10.37-5.84 22.81-8.07 31.55-16.64 18.64 11.41-0.29 31.06-10.83 40.58-9.77 3.45-20.28 4-30.56 4.08-7.35-10.47 1.16-21.6 9.84-28.02m7.65 15.25c7.81-3.45 18.33-6.8 20.24-16.27-7 4.06-26.03 4.76-20.24 16.27z"/>
<path fill="#cbcdfe" d="m115.71 16.2c41.86 4.56 85.4-4.56 126.79 6.85 9.08 6.84 13.32 18.62 13.3 29.72-3.81 51.97 7.88 104.08 0.61 155.91-55.17-1.72-103.55-35.04-138.41-75.68-10.31-10.93-20.54-25.88-36.84-27.18 2.94-11.18 1.11-22.54-1.32-33.63 10.74-7.8 22.34-14.63 32.33-23.36 2.28-10.69 2.3-21.78 3.54-32.63m69.71 16.76c-1.34 4.83-4.6 9.44-4.16 14.62 7.63-0.32 12.59-7.22 19.16-10.29-4.11-3.77-9.53-4.71-15-4.33m40.03 1.44c-0.47 5.27-0.37 10.57-0.35 15.86 6.25-0.09 7.61-6.38 7.55-11.51-1.8-1.09-5.4-3.27-7.2-4.35m-1.44 45.58c0.36 7.81 6.61 8.61 10.71 1.58-3.42-1.25-7.07-1.8-10.71-1.58m-92.3 38.76c0.98 8.72 9.22 16.66 18.18 17.31-5.18-6.62-11.29-12.52-18.18-17.31m28.21 3.4c6.47 17.64 25.96 27.37 41.18 36.62-0.5-3.8-0.9-8.04-4.46-10.37-11.54-9.66-23.96-18.28-36.72-26.25m-0.39 18.7c-0.6 2.28-2.17 4.57 0.42 6.18 19.37 17.08 42.59 29.49 66.82 38.14-0.1-2.51-0.2-5.01-0.3-7.5-23.81-9.26-46.15-22.05-66.94-36.82z"/>
<path fill="#026a29" d="m75.78 46.32c-5.79-11.51 13.24-12.21 20.24-16.27-1.91 9.47-12.43 12.82-20.24 16.27z"/>
<path fill="#943465" d="m185.42 32.96c5.47-0.38 10.89 0.56 15 4.33-6.57 3.07-11.53 9.97-19.16 10.29-0.44-5.18 2.82-9.79 4.16-14.62z"/>
<path fill="#8d3768" d="m225.45 34.4c1.8 1.08 5.4 3.26 7.2 4.35 0.06 5.13-1.3 11.42-7.55 11.51-0.02-5.29-0.12-10.59 0.35-15.86z"/>
<path fill="#98ca33" d="m12.88 65.72c2.95-4.34 5.19-9.47 9.49-12.69 9.62 0.96 17.58 7.06 27.02 8.62 8.22 1.65 17.64 4.17 23.08 11.01 3.95 12.12 6.17 26.32 1.38 38.52-1.6 0.19-3.2 0.39-4.81 0.6-0.78-10.99-0.37-22.43-3.77-32.99-15.15-10.41-34.51-11.58-52.39-13.07z"/>
<path fill="#03fc05" d="m14.06 100.03c17.68-1.45 26.94-22.17 45.92-19.83 3.05 17.91-7.51 43.06-28.53 41.77-11.7-1.29-15.2-12.25-17.39-21.94m20.64 5.15c0.33 1.27 0.65 2.54 0.98 3.81 7.72 0.91 11.56-6.69 13.08-13.16-5.46 1.77-9.88 5.55-14.06 9.35z"/>
<path fill="#8d3867" d="m224.01 79.98c3.64-0.22 7.29 0.33 10.71 1.58-4.1 7.03-10.35 6.23-10.71-1.58z"/>
<path fill="#026c27" d="m34.7 105.18c4.18-3.8 8.6-7.58 14.06-9.35-1.52 6.47-5.36 14.07-13.08 13.16-0.33-1.27-0.65-2.54-0.98-3.81z"/>
<path fill="#fb0101" d="m74.57 116.39c12.23-5.58 20.26 6.93 29.46 12.57 3.72 3.92 12.2 5.72 10.79 12.51-5.72 7.04-16.91 11.11-16.6 21.64 8.6-4.12 12.14-17.52 23.16-16.82 9.35 9.13 19.06 17.9 27.96 27.48-3.89 5.73-10.74 10.71-10.07 18.49 7.48-2.5 9.08-14.97 19.05-11.72 13.46 5.15 24.81 14.39 37.51 21.04-0.06 6.12-2.2 11.89-3.53 17.78 6.55-0.39 8.68-7.25 11.38-12.04 21.74 0.19 42.33 9.48 63.68 13.19-0.78 1.77-1.05 4.04-2.89 5.08-24.77 10.46-52.46 8.03-78.64 6.45-47.44-0.13-92.23-24.6-123.42-59.45-8.5-10.26-12.28-24.42-8.49-37.34 6.5-6.51 9.97-18.3 20.65-18.86m-2.47 37.52c-0.9 4.03-1.5 8.12-1.7 12.26 7.27 1.49 10-4.57 12.81-9.84-3.71-0.83-7.41-1.63-11.11-2.42z"/>
<path fill="#8b3768" d="m131.71 118.74c6.89 4.79 13 10.69 18.18 17.31-8.96-0.65-17.2-8.59-18.18-17.31z"/>
<path fill="#933465" d="m159.92 122.14c12.76 7.97 25.18 16.59 36.72 26.25 3.56 2.33 3.96 6.57 4.46 10.37-15.22-9.25-34.71-18.98-41.18-36.62z"/>
<path fill="#cbccfb" d="m37.29 131.48c3.54-1.94 7.05-3.92 10.63-5.77-8.21 18.51-2.68 40.75 12.34 54.06 20.48 17.94 40.85 36.64 64.87 49.75-27.87 0.07-59.85 3.1-82.81-15.91-10.56-25.9-4.48-54.94-5.03-82.13m16.39 63.82c8.19 8.09 16.72 16.61 28.18 19.66 0.35-2.51 0.65-5.08 0.95-7.58-10.39-2.27-19.43-8.02-29.13-12.08z"/>
<path fill="#923465" d="m159.53 140.84c20.79 14.77 43.13 27.56 66.94 36.82 0.1 2.49 0.2 4.99 0.3 7.5-24.23-8.65-47.45-21.06-66.82-38.14-2.59-1.61-1.02-3.9-0.42-6.18z"/>
<path fill="#9e0101" d="m72.1 153.91c3.7 0.79 7.4 1.59 11.11 2.42-2.81 5.27-5.54 11.33-12.81 9.84 0.2-4.14 0.8-8.23 1.7-12.26z"/>
<path fill="#903665" d="m53.68 195.3c9.7 4.06 18.74 9.81 29.13 12.08-0.3 2.5-0.6 5.07-0.95 7.58-11.46-3.05-19.99-11.57-28.18-19.66z"/>
<path d="m41.69 4.56c47.93-7.41 96.34 1.32 144.47-2.45 27.12-2.39 56.09 0.4 79.64 15.12 30.01 65.3 7.12 138.28 14.11 206.78-8.2 10.92-21.94 12.06-33.43 17.55-41.34 8.85-83.93 3.76-125.82 6.15-20.77-0.04-42.1 2.47-62.42-3.11-11-2.5-24.3-2.38-32.17-11.8-21.99-35.71 1.97-79.56-13.96-116.86-4.75-9.36-10.41-25.56 2.84-29.63-0.07-3.94-0.19-7.88-0.34-11.82-4.8 0.05-8.92-2.45-13.14-4.35 6.31-11.38 18.9-20.85 17.5-35.09-0.96-13.78 8.65-28.41 22.72-30.49m9.81 12.38c-9.21 7.91-14.38 19.84-15.58 31.76 3.74 0.77 8.3 2.42 11.7-0.06 2.18-10.36 7.15-22.62 18.37-25.71 6.92-1.04 12.85-4.51 18.16-8.88-10.9 0.56-21.93 0.6-32.65 2.89m16.63 14.13c-8.68 6.42-17.19 17.55-9.84 28.02 10.28-0.08 20.79-0.63 30.56-4.08 10.54-9.52 29.47-29.17 10.83-40.58-8.74 8.57-21.18 10.8-31.55 16.64m47.58-14.87c-1.24 10.85-1.26 21.94-3.54 32.63-9.99 8.73-21.59 15.56-32.33 23.36 2.43 11.09 4.26 22.45 1.32 33.63 16.3 1.3 26.53 16.25 36.84 27.18 34.86 40.64 83.24 73.96 138.41 75.68 7.27-51.83-4.42-103.94-0.61-155.91 0.02-11.1-4.22-22.88-13.3-29.72-41.39-11.41-84.93-2.29-126.79-6.85m-102.83 49.52c17.88 1.49 37.24 2.66 52.39 13.07 3.4 10.56 2.99 22 3.77 32.99 1.61-0.21 3.21-0.41 4.81-0.6 4.79-12.2 2.57-26.4-1.38-38.52-5.44-6.84-14.86-9.36-23.08-11.01-9.44-1.56-17.4-7.66-27.02-8.62-4.3 3.22-6.54 8.35-9.49 12.69m1.18 34.31c2.19 9.69 5.69 20.65 17.39 21.94 21.02 1.29 31.58-23.86 28.53-41.77-18.98-2.34-28.24 18.38-45.92 19.83m60.51 16.36c-10.68 0.56-14.15 12.35-20.65 18.86-3.79 12.92-0.01 27.08 8.49 37.34 31.19 34.85 75.98 59.32 123.42 59.45 26.18 1.58 53.87 4.01 78.64-6.45 1.84-1.04 2.11-3.31 2.89-5.08-21.35-3.71-41.94-13-63.68-13.19-2.7 4.79-4.83 11.65-11.38 12.04 1.33-5.89 3.47-11.66 3.53-17.78-12.7-6.65-24.05-15.89-37.51-21.04-9.97-3.25-11.57 9.22-19.05 11.72-0.67-7.78 6.18-12.76 10.07-18.49-8.9-9.58-18.61-18.35-27.96-27.48-11.02-0.7-14.56 12.7-23.16 16.82-0.31-10.53 10.88-14.6 16.6-21.64 1.41-6.79-7.07-8.59-10.79-12.51-9.2-5.64-17.23-18.15-29.46-12.57m-37.28 15.09c0.55 27.19-5.53 56.23 5.03 82.13 22.96 19.01 54.94 15.98 82.81 15.91-24.02-13.11-44.39-31.81-64.87-49.75-15.02-13.31-20.55-35.55-12.34-54.06-3.58 1.85-7.09 3.83-10.63 5.77z" fill="#010101"/>
<path d="m51.5 16.94c10.72-2.29 21.75-2.33 32.65-2.89-5.31 4.37-11.24 7.84-18.16 8.88-11.22 3.09-16.19 15.35-18.37 25.71-3.4 2.48-7.96 0.83-11.7 0.06 1.2-11.92 6.37-23.85 15.58-31.76z" fill="#caccf8"/>
<path d="m68.13 31.07c10.37-5.84 22.81-8.07 31.55-16.64 18.64 11.41-0.29 31.06-10.83 40.58-9.77 3.45-20.28 4-30.56 4.08-7.35-10.47 1.16-21.6 9.84-28.02m7.65 15.25c7.81-3.45 18.33-6.8 20.24-16.27-7 4.06-26.03 4.76-20.24 16.27z" fill="#04fc05"/>
<path d="m115.71 16.2c41.86 4.56 85.4-4.56 126.79 6.85 9.08 6.84 13.32 18.62 13.3 29.72-3.81 51.97 7.88 104.08 0.61 155.91-55.17-1.72-103.55-35.04-138.41-75.68-10.31-10.93-20.54-25.88-36.84-27.18 2.94-11.18 1.11-22.54-1.32-33.63 10.74-7.8 22.34-14.63 32.33-23.36 2.28-10.69 2.3-21.78 3.54-32.63m69.71 16.76c-1.34 4.83-4.6 9.44-4.16 14.62 7.63-0.32 12.59-7.22 19.16-10.29-4.11-3.77-9.53-4.71-15-4.33m40.03 1.44c-0.47 5.27-0.37 10.57-0.35 15.86 6.25-0.09 7.61-6.38 7.55-11.51-1.8-1.09-5.4-3.27-7.2-4.35m-1.44 45.58c0.36 7.81 6.61 8.61 10.71 1.58-3.42-1.25-7.07-1.8-10.71-1.58m-92.3 38.76c0.98 8.72 9.22 16.66 18.18 17.31-5.18-6.62-11.29-12.52-18.18-17.31m28.21 3.4c6.47 17.64 25.96 27.37 41.18 36.62-0.5-3.8-0.9-8.04-4.46-10.37-11.54-9.66-23.96-18.28-36.72-26.25m-0.39 18.7c-0.6 2.28-2.17 4.57 0.42 6.18 19.37 17.08 42.59 29.49 66.82 38.14-0.1-2.51-0.2-5.01-0.3-7.5-23.81-9.26-46.15-22.05-66.94-36.82z" fill="#cbcdfe"/>
<path d="m75.78 46.32c-5.79-11.51 13.24-12.21 20.24-16.27-1.91 9.47-12.43 12.82-20.24 16.27z" fill="#026a29"/>
<path d="m185.42 32.96c5.47-0.38 10.89 0.56 15 4.33-6.57 3.07-11.53 9.97-19.16 10.29-0.44-5.18 2.82-9.79 4.16-14.62z" fill="#943465"/>
<path d="m225.45 34.4c1.8 1.08 5.4 3.26 7.2 4.35 0.06 5.13-1.3 11.42-7.55 11.51-0.02-5.29-0.12-10.59 0.35-15.86z" fill="#8d3768"/>
<path d="m12.88 65.72c2.95-4.34 5.19-9.47 9.49-12.69 9.62 0.96 17.58 7.06 27.02 8.62 8.22 1.65 17.64 4.17 23.08 11.01 3.95 12.12 6.17 26.32 1.38 38.52-1.6 0.19-3.2 0.39-4.81 0.6-0.78-10.99-0.37-22.43-3.77-32.99-15.15-10.41-34.51-11.58-52.39-13.07z" fill="#98ca33"/>
<path d="m14.06 100.03c17.68-1.45 26.94-22.17 45.92-19.83 3.05 17.91-7.51 43.06-28.53 41.77-11.7-1.29-15.2-12.25-17.39-21.94m20.64 5.15c0.33 1.27 0.65 2.54 0.98 3.81 7.72 0.91 11.56-6.69 13.08-13.16-5.46 1.77-9.88 5.55-14.06 9.35z" fill="#03fc05"/>
<path d="m224.01 79.98c3.64-0.22 7.29 0.33 10.71 1.58-4.1 7.03-10.35 6.23-10.71-1.58z" fill="#8d3867"/>
<path d="m34.7 105.18c4.18-3.8 8.6-7.58 14.06-9.35-1.52 6.47-5.36 14.07-13.08 13.16-0.33-1.27-0.65-2.54-0.98-3.81z" fill="#026c27"/>
<path d="m74.57 116.39c12.23-5.58 20.26 6.93 29.46 12.57 3.72 3.92 12.2 5.72 10.79 12.51-5.72 7.04-16.91 11.11-16.6 21.64 8.6-4.12 12.14-17.52 23.16-16.82 9.35 9.13 19.06 17.9 27.96 27.48-3.89 5.73-10.74 10.71-10.07 18.49 7.48-2.5 9.08-14.97 19.05-11.72 13.46 5.15 24.81 14.39 37.51 21.04-0.06 6.12-2.2 11.89-3.53 17.78 6.55-0.39 8.68-7.25 11.38-12.04 21.74 0.19 42.33 9.48 63.68 13.19-0.78 1.77-1.05 4.04-2.89 5.08-24.77 10.46-52.46 8.03-78.64 6.45-47.44-0.13-92.23-24.6-123.42-59.45-8.5-10.26-12.28-24.42-8.49-37.34 6.5-6.51 9.97-18.3 20.65-18.86m-2.47 37.52c-0.9 4.03-1.5 8.12-1.7 12.26 7.27 1.49 10-4.57 12.81-9.84-3.71-0.83-7.41-1.63-11.11-2.42z" fill="#fb0101"/>
<path d="m131.71 118.74c6.89 4.79 13 10.69 18.18 17.31-8.96-0.65-17.2-8.59-18.18-17.31z" fill="#8b3768"/>
<path d="m159.92 122.14c12.76 7.97 25.18 16.59 36.72 26.25 3.56 2.33 3.96 6.57 4.46 10.37-15.22-9.25-34.71-18.98-41.18-36.62z" fill="#933465"/>
<path d="m37.29 131.48c3.54-1.94 7.05-3.92 10.63-5.77-8.21 18.51-2.68 40.75 12.34 54.06 20.48 17.94 40.85 36.64 64.87 49.75-27.87 0.07-59.85 3.1-82.81-15.91-10.56-25.9-4.48-54.94-5.03-82.13m16.39 63.82c8.19 8.09 16.72 16.61 28.18 19.66 0.35-2.51 0.65-5.08 0.95-7.58-10.39-2.27-19.43-8.02-29.13-12.08z" fill="#cbccfb"/>
<path d="m159.53 140.84c20.79 14.77 43.13 27.56 66.94 36.82 0.1 2.49 0.2 4.99 0.3 7.5-24.23-8.65-47.45-21.06-66.82-38.14-2.59-1.61-1.02-3.9-0.42-6.18z" fill="#923465"/>
<path d="m72.1 153.91c3.7 0.79 7.4 1.59 11.11 2.42-2.81 5.27-5.54 11.33-12.81 9.84 0.2-4.14 0.8-8.23 1.7-12.26z" fill="#9e0101"/>
<path d="m53.68 195.3c9.7 4.06 18.74 9.81 29.13 12.08-0.3 2.5-0.6 5.07-0.95 7.58-11.46-3.05-19.99-11.57-28.18-19.66z" fill="#903665"/>
</svg>
