<?xml version="1.0" encoding="utf-8"?>
<!DOCTYPE svg PUBLIC "-//W3C//DTD SVG 1.1//EN" "http://www.w3.org/Graphics/SVG/1.1/DTD/svg11.dtd">
<svg xmlns="http://www.w3.org/2000/svg" xmlns:xlink="http://www.w3.org/1999/xlink" version="1.1" id="Layer_1" x="0px" y="0px" viewBox="690.0065 -390.6129 1107.9935 1608.0936" enable-background="new 690.0065 -390.6129 1107.9935 1608.0936" xml:space="preserve">
<g>
	<path fill="#FFFFFF" d="M1772.866,1068.9666c0,65.0452-234.2263,112.0356-526.3085,112.0356   c-292.0779,0-531.4169-46.9863-531.4169-112.0356c0-65.0492,236.7806-117.7797,528.8419-117.7797   s528.8835,52.7887,528.8835,117.8296V1068.9666z"/>
	<path fill="#FEFEFE" d="M1771.7859,1069.0082c0,64.8665-233.7651,111.7451-525.2284,111.7451s-530.3371-46.8495-530.3371-111.7244   c0-64.8708,236.303-117.4559,527.8035-117.4559s527.762,52.5809,527.762,117.4559V1069.0082z"/>
	<path fill="#FEFEFE" d="M1770.7061,1069.0498c0,64.6879-233.3002,111.4667-524.1902,111.4667   c-290.8942,0-529.2156-46.7788-529.2156-111.4667c0-64.6921,235.8254-117.1361,526.7237-117.1361   c290.8568,0,526.6821,52.4565,526.6821,117.1237V1069.0498z"/>
	<path fill="#FDFDFD" d="M1769.6263,1069.0911c0,64.5135-232.8391,111.1844-523.1519,111.1844   c-290.3044,0-528.1358-46.6667-528.1358-111.1844c0-64.5176,235.3435-116.8161,525.6437-116.8161   s525.6438,52.3317,525.6438,116.8328v-0.0167H1769.6263z"/>
	<path fill="#FCFCFC" d="M1768.5879,1069.1327c0,64.3348-232.3782,110.8936-522.1134,110.8936   c-289.7146,0-527.0559-46.5587-527.0559-110.8936s234.8659-116.4921,524.564-116.4921s524.6055,52.1656,524.6055,116.5004v-0.0083   H1768.5879z"/>
	<path fill="#FBFBFB" d="M1767.5081,1069.1742c0,64.1564-231.913,110.6112-521.0336,110.6112   c-289.1249,0-525.9762-46.4548-525.9762-110.6112s234.3883-116.1725,523.5256-116.1725s523.484,51.9996,523.484,116.1682v0.0043   H1767.5081z"/>
	<path fill="#FBFBFB" d="M1766.4282,1069.2158c0,63.9775-231.4562,110.3245-519.9952,110.3245s-524.8962-46.3469-524.8962-110.3245   c0-63.982,233.9066-115.8486,522.4457-115.8486c288.5309,0,522.4458,51.8334,522.4458,115.8361V1069.2158z"/>
	<path fill="#FAFAFA" d="M1765.3483,1069.2574c0,63.7992-230.9908,110.0421-518.9154,110.0421s-523.8165-46.2682-523.8165-110.063   c0-63.8033,233.4331-115.5245,521.366-115.5245C1531.9318,953.712,1765.3483,1005.4624,1765.3483,1069.2574z"/>
	<path fill="#F9F9F9" d="M1764.3099,1069.2988c0,63.6206-230.5299,109.7557-517.8771,109.7557   c-287.3557,0-522.7366-46.1309-522.7366-109.7557c0-63.6246,232.9512-115.2004,520.3275-115.2004s520.286,51.5841,520.286,115.213   v-0.0126H1764.3099z"/>
	<path fill="#F8F9F9" d="M1763.2302,1069.3405c0,63.4421-230.069,109.469-516.8389,109.469   c-286.7658,0-521.6566-46.0269-521.6566-109.469c0-63.4461,232.4736-114.8806,519.2476-114.8806   S1763.2302,1005.878,1763.2302,1069.3405z"/>
	<path fill="#F8F8F8" d="M1762.1503,1069.3818c0,63.2673-229.6079,109.1866-515.8005,109.1866s-520.5352-45.9358-520.5352-109.1907   s231.996-114.5566,518.1678-114.5566s518.168,51.2933,518.168,114.5486V1069.3818z"/>
	<path fill="#F7F7F7" d="M1761.1119,1069.4233c0,63.085-229.1426,108.9042-514.7206,108.9042   c-285.5822,0-519.4554-45.8152-519.4554-108.9042c0-63.0888,231.5184-114.2329,517.088-114.2329s517.088,51.1273,517.088,114.2162   V1069.4233z"/>
	<path fill="#F6F6F7" d="M1760.0321,1069.465c0,62.9061-228.6859,108.6174-513.6824,108.6174   c-284.9922,0-518.3755-45.7113-518.3755-108.6174c0-62.9102,231.0366-113.913,516.0497-113.913   c284.9591,0,516.0082,51.0029,516.0082,113.9255V1069.465z"/>
	<path fill="#F6F6F6" d="M1758.9523,1069.5065c0,62.7318-228.2207,108.3351-512.6439,108.3351   c-284.4026,0-517.2957-45.5991-517.2957-108.3351c0-62.7357,230.5632-113.593,514.9698-113.593   S1758.9523,1006.7499,1758.9523,1069.5065z"/>
	<path fill="#F5F5F5" d="M1757.8723,1069.5481c0,62.5574-227.7596,108.0486-511.5641,108.0486   c-283.8128,0-516.2158-45.4912-516.2158-108.0486s230.0771-113.265,513.8899-113.265s513.89,50.7535,513.89,113.3025V1069.5481z"/>
	<path fill="#F4F4F5" d="M1756.8341,1069.5897c0,62.3785-227.2986,107.7618-510.5259,107.7618   c-283.223,0-515.1359-45.3873-515.1359-107.7618c0-62.3829,229.6037-112.9455,512.8101-112.9455   c283.2147-0.0416,512.8517,50.5458,512.8517,112.9286V1069.5897z"/>
	<path fill="#F3F4F4" d="M1755.754,1069.631c0,62.2002-226.8375,107.4795-509.4873,107.4795   c-282.6332,0-514.056-45.2793-514.056-107.4795c0-62.2001,229.126-112.6214,511.7716-112.6214s511.7717,50.4213,511.7717,112.638   V1069.631z"/>
	<path fill="#F3F3F3" d="M1754.6743,1069.6726c0,62.0214-226.3723,107.1971-508.4076,107.1971   c-282.0435,0-512.9346-45.1758-512.9346-107.1971S961.9764,957.371,1244.0239,957.371   c282.0101,0,510.6503,50.255,510.6503,112.3055L1754.6743,1069.6726z"/>
	<path fill="#F2F2F3" d="M1753.5945,1069.7142c0,61.8429-225.9115,106.9105-507.3693,106.9105   c-281.4537,0-511.8547-45.0718-511.8547-106.9105c0-61.847,228.1667-111.9818,509.6119-111.9818   c281.4702-0.0415,509.6119,50.1306,509.6119,111.9736L1753.5945,1069.7142z"/>
	<path fill="#F1F2F2" d="M1752.556,1069.7557c0,61.6686-225.4504,106.6239-506.3308,106.6239s-510.775-44.9805-510.775-106.6156   c0-61.635,227.689-111.6577,508.5322-111.6577c280.8889-0.0415,508.5735,49.9646,508.5735,111.6412L1752.556,1069.7557z"/>
	<path fill="#F0F1F1" d="M1751.4762,1069.7974c0,61.4897-224.9854,106.3416-505.251,106.3416   c-280.27,0-509.6952-44.8518-509.6952-106.3416c0-61.4899,227.2072-111.334,507.4939-111.334   c280.2242,0,507.4521,49.8398,507.4521,111.3503v-0.0164H1751.4762z"/>
	<path fill="#F0F0F1" d="M1750.3965,1069.8389c0,61.3114-224.5284,106.0548-504.2128,106.0548   c-279.6802,0-508.6152-44.7437-508.6152-106.0548s226.7337-111.014,506.4139-111.014s506.4141,49.7151,506.4141,111.0181V1069.8389   z"/>
	<path fill="#EFEFF0" d="M1749.3165,1069.8801c0,61.1327-224.0631,105.7726-503.1743,105.7726   c-279.0906,0-507.5353-44.6399-507.5353-105.7726c0-61.1326,226.2561-110.6859,505.334-110.6859   C1523.0853,959.1942,1749.3165,1008.7432,1749.3165,1069.8801z"/>
	<path fill="#EEEFEF" d="M1748.2782,1069.9218c0,60.9542-223.6022,105.4861-502.0946,105.4861   c-278.5006,0-506.4554-44.5361-506.4554-105.4861c0-60.9499,225.7744-110.3661,504.2958-110.3661   s504.2543,49.3831,504.2543,110.3536V1069.9218z"/>
	<path fill="#EEEEEE" d="M1747.1982,1069.9633c0,60.7755-223.1411,105.1993-501.0562,105.1993   c-277.9109,0-505.3757-44.4238-505.3757-105.1993c0-60.7754,225.2968-110.0461,503.2159-110.0461   c277.9399,0,503.2158,49.2582,503.2158,110.0629v-0.0167H1747.1982z"/>
	<path fill="#EDEDEE" d="M1746.1185,1070.0049c0,60.597-222.6801,104.917-500.0178,104.917   c-277.3212,0-504.2958-44.3203-504.2958-104.917c0-60.6011,224.8191-109.7225,502.136-109.7225   c277.3585,0,502.1776,49.0921,502.1776,109.7305V1070.0049z"/>
	<path fill="#ECECED" d="M1745.0802,1070.0049c0,60.4224-222.2191,104.6305-498.938,104.6305   c-276.7314,0-503.1744-44.2122-503.1744-104.6305c0-60.4183,224.3373-109.3984,501.0562-109.3984   S1745.0802,1009.6155,1745.0802,1070.0049L1745.0802,1070.0049z"/>
	<path fill="#EBECEC" d="M1744.0002,1070.088c0,60.2399-221.7539,104.3481-497.8995,104.3481   c-276.1417,0-502.0946-44.1083-502.0946-104.3481c0-60.2438,223.8597-109.0785,500.0178-109.0785   s499.9763,48.8014,499.9763,109.0662V1070.088z"/>
	<path fill="#EBEBEC" d="M1742.9204,1070.1294c0,60.0612-221.2972,104.0614-496.8613,104.0614s-501.0147-43.9838-501.0147-104.0405   c0-60.0696,223.3821-108.7631,498.9379-108.7631s498.9381,48.6768,498.9381,108.7754V1070.1294z"/>
	<path fill="#EAEAEB" d="M1741.8406,1070.171c0,59.8867-220.8318,103.7788-495.7814,103.7788   c-274.9621,0-499.9348-43.8921-499.9348-103.7788c0-59.8868,222.9043-108.4307,497.8582-108.4307   s497.8582,48.5523,497.8582,108.443v-0.0123H1741.8406z"/>
	<path fill="#E9EAEA" d="M1740.8022,1070.171c0,59.708-220.3708,103.4965-494.743,103.4965s-498.855-43.7885-498.855-103.4965   c0-59.7081,222.4267-108.1067,496.7782-108.1067s496.8197,48.4277,496.8197,108.1111v-0.0044H1740.8022z"/>
	<path fill="#E8E9EA" d="M1739.7224,1070.2125c0,59.5295-219.9098,103.2098-493.705,103.2098s-497.775-43.6805-497.775-103.2098   s221.945-107.7869,495.74-107.7869s495.74,48.2615,495.74,107.7787V1070.2125z"/>
	<path fill="#E8E8E9" d="M1738.6425,1070.2542c0,59.3551-219.4447,102.9233-492.6249,102.9233   c-273.1886,0-496.6536-43.5682-496.6536-102.9233c0-59.3508,221.4673-107.4672,494.6601-107.4672   s494.6185,48.1371,494.6185,107.4879v-0.0208H1738.6425z"/>
	<path fill="#E7E7E8" d="M1737.6041,1070.2957c0,59.1764-218.9878,102.641-491.5867,102.641s-495.5737-43.4646-495.5737-102.641   c0-59.1722,220.9897-107.1431,493.5802-107.1431c272.5822,0.0415,493.5802,48.0124,493.5802,107.1555V1070.2957z"/>
	<path fill="#E6E7E7" d="M1736.5244,1070.3373c0,58.9979-218.5269,102.3585-490.5483,102.3585s-494.494-43.3191-494.494-102.3378   c0-58.9936,220.5121-106.8232,492.5003-106.8232c272.0007,0,492.542,47.8464,492.542,106.8232V1070.3373z"/>
	<path fill="#E5E6E7" d="M1735.4445,1070.3789c0,58.8191-218.0615,102.0718-489.4685,102.0718   c-271.4192,0-493.4141-43.2527-493.4141-102.0718c0-58.8152,220.0344-106.4996,491.462-106.4996   c271.3776,0,491.4205,47.68,491.4205,106.491V1070.3789z"/>
	<path fill="#E5E5E6" d="M1734.3645,1070.4202c0,58.6407-217.6005,101.7896-488.4301,101.7896s-492.3343-43.1532-492.3343-101.798   c0-58.6365,219.5527-106.1755,490.3821-106.1755s490.3822,47.514,490.3822,106.1588V1070.4202z"/>
	<path fill="#E4E4E5" d="M1733.3262,1070.4618c0,58.4619-217.1395,101.4987-487.3918,101.4987S754.68,1128.9321,754.68,1070.4534   s219.075-105.8515,489.3022-105.8515s489.344,47.4308,489.344,105.868V1070.4618L1733.3262,1070.4618z"/>
	<path fill="#E3E4E5" d="M1732.2465,1070.5033c0,58.2837-216.6744,101.2163-486.3119,101.2163   c-269.6458,0-490.1745-42.9326-490.1745-101.2163c0-58.2835,218.5974-105.5317,488.2639-105.5317   s488.2224,47.2648,488.2224,105.5356v-0.0039H1732.2465z"/>
	<path fill="#E2E3E4" d="M1731.1665,1070.5449c0,58.1007-216.2175,100.9298-485.2736,100.9298s-489.0946-42.8207-489.0946-100.9255   c0-58.1093,218.1198-105.212,487.1841-105.212s487.1841,47.0988,487.1841,105.2036V1070.5449z"/>
	<path fill="#E2E2E3" d="M1730.0867,1070.5864c0,57.9221-215.7523,100.6432-484.2354,100.6432   c-268.4662,0-488.0147-42.7211-488.0147-100.6432c0-57.9304,217.6422-104.892,486.1043-104.892   c268.5118,0.0416,486.1458,47.0156,486.1458,104.9128V1070.5864z"/>
	<path fill="#E1E2E2" d="M1729.0483,1070.6279c0,57.7478-215.2914,100.3568-483.1554,100.3568   c-267.8765,0-486.8935-42.6088-486.8935-100.3568c0-57.752,217.1603-104.5681,485.0245-104.5681   s485.0243,46.8495,485.0243,104.5805v-0.0125H1729.0483z"/>
	<path fill="#E0E1E2" d="M1727.9684,1070.6693c0,57.5692-214.8303,100.0741-482.1171,100.0741s-485.8134-42.5007-485.8134-100.0741   c0-57.5732,216.6827-104.2482,483.986-104.2482C1511.2898,966.4211,1727.9684,1013.1044,1727.9684,1070.6693z"/>
	<path fill="#DFE0E1" d="M1726.8887,1070.7109c0,57.3945-214.3693,99.7916-481.0787,99.7916   c-266.697,0-484.7337-42.3971-484.7337-99.7916c0-57.3906,216.2051-103.9201,482.9062-103.9201   c266.6846,0,482.9063,46.5171,482.9063,103.9161V1070.7109z"/>
	<path fill="#DFDFE0" d="M1725.8088,1070.7524c0,57.2162-213.9042,99.5093-479.999,99.5093s-483.6537-42.2931-483.6537-99.5093   c0-57.212,215.7275-103.5962,481.8262-103.5962c266.103,0,481.8265,46.3926,481.8265,103.5839V1070.7524z"/>
	<path fill="#DEDFE0" d="M1724.7704,1070.7941c0,57.0417-213.443,99.2268-478.9606,99.2268s-482.5739-42.1812-482.5739-99.2268   c0-57.0333,215.2457-103.2723,480.7464-103.2723c265.5216,0.0416,480.7881,46.2681,480.7881,103.2932V1070.7941z"/>
	<path fill="#DDDEDF" d="M1723.6906,1070.8356c0,56.859-212.9821,98.9404-477.9224,98.9404s-481.4525-42.073-481.4525-98.9319   c0-56.855,214.7681-102.9526,479.7081-102.9526c264.8986,0,479.6667,46.1017,479.6667,102.9607V1070.8356z"/>
	<path fill="#DCDDDE" d="M1722.6107,1070.8772c0,56.6802-212.5211,98.658-476.8424,98.658   c-264.3378,0-480.4141-41.9734-480.4141-98.658c0-56.6761,214.2903-102.6326,478.6282-102.6326s478.6283,45.9357,478.6283,102.6285   V1070.8772z"/>
	<path fill="#DCDCDD" d="M1721.5724,1070.9186c0,56.5057-212.0601,98.3712-475.804,98.3712s-479.2928-41.8611-479.2928-98.3712   c0-56.5018,213.8127-102.3087,477.5483-102.3087s477.5485,45.8112,477.5485,102.2963V1070.9186z"/>
	<path fill="#DBDCDD" d="M1720.4926,1070.9601c0,56.3274-211.5948,98.0848-474.7656,98.0848s-478.213-41.7823-478.213-98.1013   c0-56.3273,213.3309-101.9847,476.4684-101.9847s476.5103,45.645,476.5103,101.9639v0.0372H1720.4926z"/>
	<path fill="#DADBDC" d="M1719.4125,1071.0017c0,56.1486-211.1337,97.7981-473.7273,97.7981   c-262.5644,0-477.1331-41.6495-477.1331-97.7981c0-56.1529,212.8575-101.6691,475.4301-101.6691   s475.4303,45.5204,475.4303,101.6731V1071.0017L1719.4125,1071.0017z"/>
	<path fill="#D9DADB" d="M1718.3328,1071.0433c0,55.97-210.6729,97.5156-472.6475,97.5156s-476.0532-41.5457-476.0532-97.5156   c0-55.9744,212.3757-101.3452,474.3502-101.3452c261.9913,0,474.3505,45.3542,474.3505,101.341V1071.0433z"/>
	<path fill="#D8D9DA" d="M1717.2946,1071.0848c0,55.7914-210.2119,97.225-471.6093,97.225   c-261.3848,0-474.9734-41.4376-474.9734-97.225c0-55.7958,211.9023-101.0211,473.2704-101.0211   c261.4098,0,473.3121,45.2297,473.3121,101.0087v0.0125H1717.2946z"/>
	<path fill="#D8D9DA" d="M1716.2145,1071.1265c0,55.6129-209.7465,96.9425-470.5292,96.9425   c-260.795,0-473.8935-41.3296-473.8935-96.9425c0-55.6171,211.4205-100.7013,472.2322-100.7013   c260.7452,0,472.1906,45.105,472.1906,100.718v-0.0167H1716.2145z"/>
	<path fill="#D7D8D9" d="M1715.1346,1071.1677c0,55.4343-209.2898,96.6559-469.491,96.6559S772.83,1126.6228,772.83,1071.1759   c0-55.4386,210.9429-100.3773,471.1523-100.3773c260.2053,0,471.1523,44.9388,471.1523,100.3856V1071.1677z"/>
	<path fill="#D6D7D8" d="M1714.0549,1071.2092c0,55.2559-208.8247,96.3735-468.4526,96.3735s-471.7339-41.1179-471.7339-96.3735   c0-55.2598,210.4611-100.0574,470.0724-100.0574c259.6655,0,470.114,44.7728,470.114,100.0534v0.004H1714.0549z"/>
	<path fill="#D5D6D7" d="M1713.0165,1071.2509c0,55.0814-208.3635,96.0911-467.4143,96.0911   c-259.0258,0-470.6124-41.01-470.6124-96.0911c0-55.0854,209.9834-99.7335,468.9925-99.7335s469.0341,44.6481,469.0341,99.7211   v0.0125H1713.0165z"/>
	<path fill="#D5D6D7" d="M1711.9366,1071.2924c0,54.9028-207.9026,95.8047-466.3345,95.8047   c-258.436,0-469.5325-40.906-469.5325-95.8047c0-54.9067,209.5058-99.4136,467.9542-99.4136   c258.4194,0,467.9127,44.5234,467.9127,99.4305V1071.2924z"/>
	<path fill="#D4D5D6" d="M1710.8568,1071.334c0,54.7284-207.4415,95.5223-465.2961,95.5223s-468.4526-40.7939-468.4526-95.5223   c0-54.7241,209.0281-99.0816,466.8743-99.0816s466.8745,44.3575,466.8745,99.0981v-0.0165H1710.8568z"/>
	<path fill="#D3D4D5" d="M1709.777,1071.3756c0,54.5496-206.9764,95.2399-464.2162,95.2399   c-257.2523,0-467.3728-40.6901-467.3728-95.2399c0-54.5455,208.5464-98.7617,465.7944-98.7617   c257.2565,0,465.7946,44.2328,465.7946,98.766V1071.3756L1709.777,1071.3756z"/>
	<path fill="#D2D3D5" d="M1708.7386,1071.4171c0,54.3712-206.5153,94.9532-463.1779,94.9532s-466.293-40.582-466.293-94.9532   c0-54.367,208.0729-98.4377,464.7562-98.4377s464.7147,44.0667,464.7147,98.4338L1708.7386,1071.4171z"/>
	<path fill="#D2D3D4" d="M1707.6587,1071.4585c0,54.1924-206.0543,94.6667-462.1396,94.6667s-465.213-40.4741-465.213-94.6665   c0-54.1923,207.5953-98.1221,463.6763-98.1221s463.6765,43.9421,463.6765,98.1429L1707.6587,1071.4585z"/>
	<path fill="#D1D2D3" d="M1706.579,1071.5c0,54.0099-205.5892,94.38-461.0599,94.38c-255.483,0-464.1331-40.3701-464.1331-94.38   c0-54.0139,207.1134-97.7982,462.5964-97.7982c255.5122,0,462.5966,43.776,462.5966,97.8106V1071.5H1706.579z"/>
	<path fill="#D0D1D2" d="M1705.5405,1071.5416c0,53.8352-205.1323,94.0935-460.0215,94.0935s-463.0533-40.2456-463.0533-94.0728   c0-53.827,206.6317-97.4782,461.5165-97.4782c254.889,0,461.5582,43.6514,461.5582,97.4782V1071.5416L1705.5405,1071.5416z"/>
	<path fill="#CFD0D2" d="M1704.4607,1071.5833c0,53.6566-204.6713,93.8109-458.983,93.8109   c-254.3035,0-461.932-40.1545-461.932-93.8109c0-53.6565,206.1582-97.1545,460.4368-97.1545   c254.3075,0,460.4783,43.485,460.4783,97.1461V1071.5833z"/>
	<path fill="#CED0D1" d="M1703.3809,1071.6248c0,53.478-204.2062,93.5284-457.9448,93.5284   c-253.7095,0-460.852-40.0504-460.852-93.5284s205.6765-96.8305,459.3984-96.8305   c253.7261-0.0416,459.3986,43.3191,459.3986,96.8138v0.0167H1703.3809z"/>
	<path fill="#CECFD0" d="M1702.3009,1071.6664c0,53.2994-203.7493,93.2421-456.8649,93.2421s-459.7722-39.9426-459.7722-93.2421   c0-53.2996,205.2154-96.5231,458.3185-96.5231S1702.3009,1018.3378,1702.3009,1071.6664z"/>
	<path fill="#CDCECF" d="M1701.2627,1071.7078c0,53.1207-203.2883,92.9595-455.8267,92.9595s-458.6924-39.8384-458.6924-92.9595   c0-53.1252,204.7253-96.1868,457.2386-96.1868s457.2803,43.0699,457.2803,96.1907v-0.0039H1701.2627z"/>
	<path fill="#CCCDCF" d="M1700.1829,1071.7493c0,52.9424-202.8231,92.6729-454.7882,92.6729   c-251.9403,0-457.6126-39.7305-457.6126-92.6729c0-52.9465,204.2437-95.8627,456.2004-95.8627s456.2004,42.9039,456.2004,95.8587   V1071.7493z"/>
	<path fill="#CBCDCE" d="M1699.1029,1071.7909c0,52.7678-202.3622,92.3864-453.7084,92.3864   c-251.3506,0-456.5327-39.6185-456.5327-92.3864c0-52.768,203.7659-95.543,455.1205-95.543   c251.3589-0.0416,455.1206,42.7374,455.1206,95.5263V1071.7909z"/>
	<path fill="#CBCCCD" d="M1698.0231,1071.8324c0,52.5852-201.9011,92.104-452.67,92.104   c-250.7607,0-455.4527-39.5188-455.4527-92.104c0-52.5892,203.2841-95.2231,454.0406-95.2231   c250.8188,0,454.0823,42.613,454.0823,95.2355L1698.0231,1071.8324z"/>
	<path fill="#CACBCC" d="M1696.9846,1071.8739c0,52.4065-201.4401,91.8174-451.6316,91.8174s-454.3314-39.4109-454.3314-91.8174   c0-52.4108,202.8065-94.8991,452.9608-94.8991c250.1958,0,453.0022,42.4883,453.0022,94.9033V1071.8739z"/>
	<path fill="#C9CACC" d="M1695.9049,1071.9155c0,52.2321-200.979,91.5309-450.5519,91.5309   c-249.5812,0-453.2515-39.2986-453.2515-91.5309s202.3289-94.5752,451.9224-94.5752   c249.5314-0.0416,451.881,42.3224,451.881,94.5712V1071.9155z"/>
	<path fill="#C8C9CB" d="M1694.8251,1071.9155c0,52.0536-200.5139,91.2483-449.5137,91.2483   c-248.9913,0-452.1716-39.1949-452.1716-91.2483s201.8512-94.2512,450.8426-94.2512s450.8427,42.1976,450.8427,94.2388V1071.9155z"/>
	<path fill="#C7C9CA" d="M1693.7451,1071.9984c0,51.8749-200.0527,90.9618-448.4752,90.9618s-451.0919-39.0869-451.0919-90.9618   c0-51.8748,201.3694-93.9316,449.7626-93.9316s449.8043,42.0316,449.8043,93.9481v-0.0165H1693.7451z"/>
	<path fill="#C7C8C9" d="M1692.7069,1071.9984c0,51.6964-199.5919,90.6794-447.3955,90.6794   c-247.8118,0-450.0119-38.983-450.0119-90.6794c0-51.7004,200.8959-93.6076,448.7244-93.6076s448.6829,41.9484,448.6829,93.6157   v-0.0081H1692.7069z"/>
	<path fill="#C6C7C9" d="M1691.6268,1072.0815c0,51.5221-199.1266,90.3971-446.3569,90.3971   c-247.218,0-448.932-38.871-448.932-90.3971c0-51.526,200.4142-93.2876,447.6444-93.2876s447.6447,41.7407,447.6447,93.2837v0.0039   H1691.6268z"/>
	<path fill="#C5C6C8" d="M1690.5471,1072.0815c0,51.3434-198.6658,90.1104-445.3187,90.1104   c-246.6281,0-447.8522-38.767-447.8522-90.1104c0-51.3433,199.9365-92.9636,446.5646-92.9636s446.6062,41.6163,446.6062,92.9512   v0.0125H1690.5471z"/>
	<path fill="#C4C6C7" d="M1689.5088,1072.1232c0,51.1648-198.2047,89.8279-444.2388,89.8279   c-246.0384,0-446.7308-38.6633-446.7308-89.8279c0-51.1646,199.4548-92.6438,445.4849-92.6438s445.4849,41.5332,445.4849,92.6605   L1689.5088,1072.1232z"/>
	<path fill="#C4C5C6" d="M1688.4288,1072.1647c0,50.9861-197.7437,89.5455-443.2004,89.5455s-445.6509-38.5553-445.6509-89.5455   c0-50.9901,198.9813-92.32,444.4465-92.32s444.4049,41.3671,444.4049,92.3282V1072.1647z"/>
	<path fill="#C3C4C6" d="M1687.3489,1072.2061c0,50.8074-197.2825,89.2548-442.1621,89.2548s-444.571-38.4474-444.571-89.2548   c0-50.8075,198.4994-91.9961,443.3665-91.9961C1488.8619,980.21,1687.3489,1021.4108,1687.3489,1072.2061z"/>
	<path fill="#C2C3C5" d="M1686.2693,1072.2477c0,50.6288-196.8217,88.9723-441.0823,88.9723   c-244.269,0-443.4912-38.3394-443.4912-88.9723c0-50.633,198.0219-91.6722,442.2867-91.6722   c244.2982,0,442.2867,41.0349,442.2867,91.6638V1072.2477L1686.2693,1072.2477z"/>
	<path fill="#C1C2C4" d="M1685.231,1072.2892c0,50.4503-196.3564,88.6899-440.0439,88.6899   c-243.6835,0-442.4114-38.2355-442.4114-88.6899c0-50.4545,197.5402-91.3521,441.2068-91.3521   c243.6752,0,441.2485,40.91,441.2485,91.3314V1072.2892z"/>
	<path fill="#C0C2C3" d="M1684.151,1072.3308c0,50.2717-195.8995,88.4032-439.0056,88.4032   c-243.0896,0-441.3315-38.1315-441.3315-88.4032c0-50.2718,197.0667-91.0282,440.1686-91.0282   c243.0936,0.0416,440.1686,40.7856,440.1686,91.0406V1072.3308z"/>
	<path fill="#C0C1C2" d="M1683.071,1072.3724c0,50.0973-195.4342,88.1207-437.9257,88.1207   c-242.4997,0-440.2516-38.0194-440.2516-88.1207c0-50.0974,196.5848-90.7087,439.0887-90.7087   C1486.4945,981.6638,1683.071,1022.2833,1683.071,1072.3724z"/>
	<path fill="#BFC0C2" d="M1681.9913,1072.4139c0,49.9187-194.9733,87.8301-436.8875,87.8301   c-241.9059,0-439.1718-37.9158-439.1718-87.8301c0-49.9144,196.1113-90.3846,438.0088-90.3846s438.0504,40.4532,438.0504,90.3762   V1072.4139L1681.9913,1072.4139z"/>
	<path fill="#BEBFC1" d="M1680.953,1072.4556c0,49.7443-194.5125,87.5476-435.8491,87.5476s-438.0504-37.8077-438.0504-87.5476   c0-49.7403,195.6296-90.0648,436.9289-90.0648s436.9707,40.3702,436.9707,90.0856v-0.0208H1680.953z"/>
	<path fill="#BDBFC0" d="M1679.873,1072.4967c0,49.5659-194.0472,87.2654-434.7693,87.2654s-436.9705-37.6998-436.9705-87.2654   c0-49.5613,195.1519-89.7407,435.8906-89.7407s435.849,40.2041,435.849,89.7531v-0.0125H1679.873z"/>
	<path fill="#BCBEBF" d="M1678.7931,1072.5383c0,49.3872-193.5861,86.9789-433.7308,86.9789s-435.8907-37.5958-435.8907-86.9789   c0-49.3829,194.6701-89.4167,434.8107-89.4167c240.1448,0,434.8109,40.0381,434.8109,89.4211L1678.7931,1072.5383z"/>
	<path fill="#BCBDBF" d="M1677.7549,1072.58c0,49.2086-193.1293,86.6964-432.6926,86.6964   c-239.5508,0-434.8107-37.4878-434.8107-86.6964c0-49.2086,194.1967-89.097,433.7309-89.097   c239.5634,0,433.7726,39.8717,433.7726,89.0887v0.0083H1677.7549z"/>
	<path fill="#BBBCBE" d="M1676.675,1072.6215c0,49.0341-192.6641,86.4139-431.6127,86.4139   c-238.957,0-433.7309-37.3799-433.7309-86.4142c0-49.0298,193.7148-88.773,432.6926-88.773   c238.9403,0,432.651,39.7473,432.651,88.7563V1072.6215L1676.675,1072.6215z"/>
	<path fill="#BABBBD" d="M1675.5952,1072.6631c0,48.8514-192.2032,86.1273-430.5745,86.1273   c-238.3672,0-432.651-37.2803-432.651-86.1273c0-48.8471,193.2372-88.4532,431.6127-88.4532   c238.359,0,431.6128,39.6226,431.6128,88.4656V1072.6631z"/>
	<path fill="#B9BBBC" d="M1674.5153,1072.7047c0,48.6768-191.7379,85.845-429.5361,85.845s-431.5712-37.168-431.5712-85.845   c0-48.6727,192.7596-88.1293,430.5328-88.1293s430.5745,39.4565,430.5745,88.1333V1072.7047L1674.5153,1072.7047z"/>
	<path fill="#B9BABB" d="M1673.4768,1072.746c0,48.4983-191.281,85.5583-428.4562,85.5583s-430.4498-37.0601-430.4498-85.5583   c0-48.4941,192.2777-87.8096,429.4531-87.8096c237.1544,0,429.4529,39.2905,429.4529,87.8013V1072.746L1673.4768,1072.746z"/>
	<path fill="#B8B9BB" d="M1672.3972,1072.7876c0,48.3196-190.8159,85.2717-427.418,85.2717s-429.3699-36.9646-429.3699-85.2677   c0-48.3156,191.8002-87.4813,428.4147-87.4813c236.573,0,428.3732,39.1657,428.3732,87.4689V1072.7876L1672.3972,1072.7876z"/>
	<path fill="#B7B8BA" d="M1671.3173,1072.8291c0,48.1411-190.3549,84.9851-426.3796,84.9851   c-236.0039,0-428.29-36.844-428.29-84.9851c0-48.141,191.3225-87.1615,427.3347-87.1615s427.3347,39.0411,427.3347,87.1781   L1671.3173,1072.8291z"/>
	<path fill="#B6B7B9" d="M1670.2373,1072.8707c0,47.9584-189.8939,84.6986-425.2997,84.6986s-427.2102-36.7402-427.2102-84.6986   c0-47.9667,190.8491-86.8417,426.2548-86.8417s426.255,38.875,426.255,86.8458v-0.0042H1670.2373z"/>
	<path fill="#B5B7B8" d="M1669.1991,1072.9124c0,47.7798-189.4287,84.4119-424.2614,84.4119   c-234.8244,0-426.1304-36.6322-426.1304-84.4119c0-47.788,190.3673-86.5222,425.2167-86.5222s425.175,38.7505,425.175,86.5137   V1072.9124L1669.1991,1072.9124z"/>
	<path fill="#B4B6B7" d="M1668.1193,1072.9539c0,47.6012-188.9718,84.1295-423.223,84.1295s-425.009-36.5492-425.009-84.1462   c0-47.6095,189.8856-86.1981,424.1367-86.1981c234.2057,0,424.0953,38.5844,424.0953,86.1814V1072.9539z"/>
	<path fill="#B4B5B7" d="M1667.0393,1072.9952c0,47.4268-188.5109,83.847-422.1432,83.847s-423.9706-36.4247-423.9706-83.8555   s189.408-85.8741,423.0568-85.8741c233.6656,0,423.057,38.4598,423.057,85.8906V1072.9952z"/>
	<path fill="#B3B4B6" d="M1666.0009,1073.0369c0,47.2522-188.0455,83.5646-421.1049,83.5646   c-233.0509,0-422.8491-36.3124-422.8491-83.5646c0-47.248,188.9302-85.5502,421.9771-85.5502   c233.0426,0,421.9769,38.2935,421.9769,85.5583V1073.0369L1666.0009,1073.0369z"/>
	<path fill="#B2B3B5" d="M1664.921,1073.0784c0,47.0735-187.5847,83.2822-420.0665,83.2822   c-232.4694,0-421.8109-36.2087-421.8109-83.2822c0-47.0697,188.4527-85.2302,420.9387-85.2302   c232.4612,0,420.9387,38.1691,420.9387,85.2262V1073.0784z"/>
	<path fill="#B1B3B4" d="M1663.8413,1073.12c0,46.8951-187.1194,82.9955-418.9867,82.9955   c-231.8755,0-420.6895-36.1006-420.6895-82.9955c0-46.891,187.975-84.9023,419.8588-84.9023   c231.8383,0,419.8174,38.0031,419.8174,84.8939V1073.12z"/>
	<path fill="#B0B2B3" d="M1662.7615,1073.1614c0,46.7166-186.6584,82.7092-417.9484,82.7092   c-231.2858,0-419.6097-35.9927-419.6097-82.7092c0-46.7123,187.4974-84.5822,418.7789-84.5822s418.7789,37.8367,418.7789,84.5615   v0.0206H1662.7615z"/>
	<path fill="#B0B1B3" d="M1661.6815,1073.203c0,46.5381-186.1974,82.4268-416.91,82.4268s-418.5297-35.8887-418.5297-82.4268   c0-46.5336,187.0155-84.2582,417.699-84.2582c230.7583,0,417.7407,37.7122,417.7407,84.2708V1073.203L1661.6815,1073.203z"/>
	<path fill="#AFB0B2" d="M1660.6432,1073.2444c0,46.3636-185.7363,82.14-415.8301,82.14c-230.1021,0-417.45-35.7766-417.45-82.14   c0-46.3552,186.5379-83.9387,416.6607-83.9387S1660.6432,1026.8932,1660.6432,1073.2444z"/>
	<path fill="#AEAFB1" d="M1659.5634,1073.2859c0,46.1849-185.2712,81.8536-414.7877,81.8536s-416.3701-35.6687-416.3701-81.8536   c0-46.1764,186.0603-83.6186,415.581-83.6186s415.5808,37.4214,415.5808,83.6063L1659.5634,1073.2859z"/>
	<path fill="#ADAFB0" d="M1658.4835,1073.3275c0,46.0021-184.8143,81.5669-413.7368,81.5669s-415.2736-35.5607-415.2736-81.5669   c0-46.0061,185.5827-83.299,414.5052-83.299c228.9723,0,414.5425,37.2967,414.5425,83.3155L1658.4835,1073.3275z"/>
	<path fill="#ACAEAF" d="M1657.4451,1073.3691c0,45.8235-184.3491,81.2804-412.686,81.2804   c-228.3328,0-414.1895-35.4569-414.1895-81.2804c0-45.8236,185.105-82.9792,413.4335-82.9792   c228.3079,0,413.4213,37.1723,413.4213,82.9832L1657.4451,1073.3691z"/>
	<path fill="#ACADAF" d="M1656.3652,1073.4106c0,45.6449-183.8881,80.998-411.6353,80.998   c-227.743,0-413.1014-35.3531-413.1014-80.998c0-45.6492,184.6232-82.6511,412.3663-82.6511   c227.7679,0,412.3829,37.0059,412.3829,82.6511H1656.3652z"/>
	<path fill="#ABACAE" d="M1655.2853,1073.4523c0,45.4664-183.4313,80.7156-410.5845,80.7156   c-227.1491,0-412.0173-35.2451-412.0173-80.7156s184.1498-82.3312,411.2987-82.3312   c227.145-0.0416,411.3031,36.8399,411.3031,82.3188V1073.4523z"/>
	<path fill="#AAABAD" d="M1654.2056,1073.4938c0,45.2878-182.9661,80.429-409.5295,80.429s-410.9333-35.1411-410.9333-80.429   c0-45.292,183.668-82.0073,410.2315-82.0073c226.5634-0.0416,410.223,36.674,410.223,81.9866L1654.2056,1073.4938z"/>
	<path fill="#A9AAAC" d="M1653.1674,1073.5352c0,45.1093-182.5051,80.1466-408.4829,80.1466   c-225.9695,0-409.8452-35.0374-409.8452-80.1466c0-45.1134,183.1862-81.6875,409.1639-81.6875   c225.9406,0,409.1433,36.5491,409.1433,81.6956L1653.1674,1073.5352z"/>
	<path fill="#A8AAAB" d="M1652.0873,1073.5768c0,44.9305-182.0439,79.86-407.4279,79.86s-408.7611-34.9252-408.7611-79.86   c0-44.9349,182.7128-81.3636,408.0924-81.3636c225.4006,0,408.105,36.4247,408.105,81.3636H1652.0873z"/>
	<path fill="#A7A9AB" d="M1651.0074,1073.6183c0,44.7521-181.583,79.5734-406.3729,79.5734   c-224.7942,0-407.6771-34.8213-407.6771-79.5734c0-44.7603,182.231-81.0396,407.025-81.0396   c224.8192,0,407.0253,36.2585,407.0253,81.0312v0.0084H1651.0074z"/>
	<path fill="#A7A8AA" d="M1649.9691,1073.6599c0,44.5818-181.1179,79.2949-405.3223,79.2949s-406.5931-34.7092-406.5931-79.2949   c0-44.5735,181.7533-80.7157,405.9577-80.7157s405.9452,36.0923,405.9452,80.699L1649.9691,1073.6599z"/>
	<path fill="#A6A7A9" d="M1648.8893,1073.6599c0,44.4031-180.6567,79.0085-404.2714,79.0085   c-223.6105,0-405.505-34.6053-405.505-79.0085c0-44.395,181.2756-80.3917,404.8861-80.3917s404.907,36.0508,404.907,80.4081   L1648.8893,1073.6599z"/>
	<path fill="#A5A6A8" d="M1647.8094,1073.743c0,44.2246-180.1959,78.7261-403.2166,78.7261s-404.421-34.5015-404.421-78.7261   c0-44.2162,180.798-80.0677,403.8188-80.0677c222.9916,0,403.7855,35.8431,403.7855,80.076L1647.8094,1073.743z"/>
	<path fill="#A4A6A7" d="M1646.7295,1073.743c0,44.0458-179.7347,78.4437-402.1658,78.4437s-403.3328-34.3936-403.3328-78.4437   c0-44.0419,180.3204-79.7438,402.7513-79.7438S1646.7295,1029.7178,1646.7295,1073.743z"/>
	<path fill="#A3A5A7" d="M1645.6912,1073.8258c0,43.8674-179.2738,78.1489-401.1149,78.1489s-402.2488-34.2858-402.2488-78.1489   c0-43.8673,179.8387-79.4281,401.6798-79.4281c221.8702-0.0416,401.7089,35.5109,401.7089,79.4115L1645.6912,1073.8258z"/>
	<path fill="#A3A4A6" d="M1644.6116,1073.8258c0,43.6931-178.8087,77.8663-400.0602,77.8663s-401.1646-34.1776-401.1646-77.8663   c0-43.6886,179.361-79.1081,400.6165-79.1081c221.2057,0.0416,400.5876,35.4692,400.5876,79.1205L1644.6116,1073.8258z"/>
	<path fill="#A2A3A5" d="M1643.5315,1073.9091c0,43.5143-178.3477,77.5839-399.0092,77.5839s-400.0807-34.0696-400.0807-77.5839   s178.8834-78.7842,399.545-78.7842s399.5492,35.2615,399.5492,78.7883L1643.5315,1073.9091z"/>
	<path fill="#A1A2A4" d="M1642.4517,1073.9091c0,43.3358-177.8866,77.2974-397.9583,77.2974s-398.9926-33.9657-398.9926-77.2974   c0-43.3318,178.4057-78.4646,398.4733-78.4646s398.5109,35.1372,398.5109,78.4563L1642.4517,1073.9091z"/>
	<path fill="#A0A1A3" d="M1641.4132,1073.9922c0,43.1571-177.4255,77.0149-396.9034,77.0149s-397.9086-33.8578-397.9086-77.0149   s177.924-78.1363,397.406-78.1363s397.3894,34.9293,397.3894,78.1238L1641.4132,1073.9922z"/>
	<path fill="#9FA1A2" d="M1640.3335,1073.9922c0,42.9786-176.9645,76.7284-395.8568,76.7284s-396.8245-33.7498-396.8245-76.7284   s177.4504-77.8167,396.3386-77.8167s396.351,34.888,396.351,77.8332L1640.3335,1073.9922z"/>
	<path fill="#9EA0A2" d="M1639.2535,1074.0336c0,42.7998-176.4994,76.4419-394.8019,76.4419s-395.7364-33.6461-395.7364-76.4419   c0-42.7959,176.9687-77.4927,395.2669-77.4927s395.2714,34.6801,395.2714,77.4594V1074.0336z"/>
	<path fill="#9E9FA1" d="M1638.1737,1074.0751c0,42.6215-176.0425,76.1593-393.7511,76.1593s-394.6523-33.5381-394.6523-76.1593   c0-42.6211,176.491-77.1727,394.1997-77.1727s394.1913,34.5555,394.1913,77.1687L1638.1737,1074.0751z"/>
	<path fill="#9D9EA0" d="M1637.1354,1074.1167c0,42.4427-175.5774,75.8768-392.6962,75.8768s-393.5683-33.4341-393.5683-75.8768   c0-42.4468,176.0135-76.8488,393.1323-76.8488s393.1115,34.3896,393.1115,76.8364L1637.1354,1074.1167z"/>
	<path fill="#9C9D9F" d="M1636.0557,1074.1582c0,42.2683-175.1163,75.5905-391.6495,75.5905   c-216.5291,0-392.4803-33.3221-392.4803-75.5905s175.5317-76.5291,392.0607-76.5291   c216.5541,0.0416,392.0732,34.3065,392.0732,76.5457L1636.0557,1074.1582z"/>
	<path fill="#9B9C9E" d="M1634.9757,1074.1998c0,42.0856-174.6553,75.3037-390.5946,75.3037s-391.392-33.2181-391.392-75.3037   c0-42.0896,175.0541-76.2052,390.9933-76.2052c215.931,0,390.9933,34.1401,390.9933,76.2133V1074.1998z"/>
	<path fill="#9A9C9D" d="M1633.9374,1074.2415c0,41.9111-174.1943,75.0172-389.5437,75.0172   c-215.3538,0-390.3122-33.1102-390.3122-75.0172c0-41.9071,174.5764-75.8853,389.9301-75.8853   c215.308,0,389.9135,33.974,389.9135,75.8811L1633.9374,1074.2415z"/>
	<path fill="#999B9D" d="M1632.8574,1074.2827c0,41.7324-173.7291,74.7349-388.4889,74.7349s-389.2239-33.0022-389.2239-74.7349   s174.0946-75.5613,388.8544-75.5613c214.7679,0,388.875,33.808,388.875,75.549L1632.8574,1074.2827z"/>
	<path fill="#999A9C" d="M1631.7777,1074.3243c0,41.554-173.2681,74.4524-387.438,74.4524s-388.14-32.8984-388.14-74.4524   c0-41.5541,173.6169-75.2373,387.7869-75.2373s387.7538,33.7249,387.7538,75.2581L1631.7777,1074.3243z"/>
	<path fill="#98999B" d="M1630.6978,1074.3658c0,41.3752-172.807,74.1658-386.3872,74.1658s-387.0559-32.7946-387.0559-74.1658   s173.1436-74.9133,386.7195-74.9133c213.6051,0.0416,386.7153,33.5589,386.7153,74.9257L1630.6978,1074.3658z"/>
	<path fill="#97989A" d="M1629.6594,1074.4075c0,41.1968-172.3459,73.8793-385.3323,73.8793s-385.9678-32.6825-385.9678-73.8793   s172.6617-74.5937,385.6521-74.5937s385.677,33.3925,385.677,74.5937H1629.6594z"/>
	<path fill="#969799" d="M1628.5796,1074.449c0,41.0181-171.885,73.5968-384.2816,73.5968s-384.8838-32.5787-384.8838-73.5968   s172.1841-74.2737,384.5848-74.2737s384.5555,33.2681,384.5555,74.2613L1628.5796,1074.449z"/>
	<path fill="#959698" d="M1627.4998,1074.4905c0,40.8438-171.4198,73.3103-383.2307,73.3103s-383.7997-32.4666-383.7997-73.3103   c0-40.8395,171.7065-73.9497,383.5131-73.9497c211.8192,0,383.5173,33.1018,383.5173,73.9291V1074.4905z"/>
	<path fill="#949697" d="M1626.4614,1074.5321c0,40.6652-170.9589,73.028-382.1799,73.028   c-211.217,0-382.7116-32.3628-382.7116-73.028c0-40.6609,171.2287-73.6258,382.4457-73.6258   c211.1962,0,382.4375,32.9774,382.4375,73.6382L1626.4614,1074.5321z"/>
	<path fill="#939597" d="M1625.3815,1074.5735c0,40.4865-170.4978,72.7454-381.125,72.7454s-381.6275-32.2589-381.6275-72.7454   c0-40.4866,170.7512-73.3019,381.3785-73.3019c210.6146,0,381.3575,32.8114,381.3575,73.3062L1625.3815,1074.5735z"/>
	<path fill="#939496" d="M1624.3016,1074.615c0,40.308-170.0369,72.4547-380.0742,72.4547S863.684,1114.923,863.684,1074.615   s170.2734-72.9821,380.3109-72.9821c209.9917-0.0416,380.2778,32.6449,380.2778,72.9323L1624.3016,1074.615z"/>
	<path fill="#929395" d="M1623.2219,1074.6566c0,40.1293-169.5758,72.1722-379.0234,72.1722s-379.4554-32.043-379.4554-72.1722   s169.7877-72.6582,379.2394-72.6582s379.2394,32.5205,379.2394,72.6415V1074.6566L1623.2219,1074.6566z"/>
	<path fill="#919294" d="M1622.142,1074.6981c0,39.9509-169.1106,71.8899-377.9685,71.8899s-378.3713-31.9349-378.3713-71.8899   c0-39.9548,169.3142-72.3383,378.172-72.3383c208.8704,0,378.1594,32.3959,378.1594,72.3507L1622.142,1074.6981z"/>
	<path fill="#909193" d="M1621.1036,1074.7397c0,39.7722-168.6495,71.6031-376.9176,71.6031s-377.2873-31.8309-377.2873-71.6031   c0-39.7721,168.8323-72.0143,377.1005-72.0143s377.0796,32.2298,377.0796,72.0187L1621.1036,1074.7397z"/>
	<path fill="#8F9092" d="M1620.0238,1074.7814c0,39.5978-168.1886,71.3207-375.8669,71.3207   c-207.6742,0-376.1992-31.7229-376.1992-71.3207c0-39.5938,168.3546-71.6948,376.0331-71.6948s376.0414,32.1052,376.0414,71.6865   L1620.0238,1074.7814z"/>
	<path fill="#8E9091" d="M1618.9438,1074.8226c0,39.4193-167.7277,71.0343-374.816,71.0343s-375.1152-31.611-375.1152-71.0343   c0-39.4149,167.877-71.3707,374.9655-71.3707s375.0031,31.9391,375.0031,71.354L1618.9438,1074.8226z"/>
	<path fill="#8D8F91" d="M1617.9055,1074.8643c0,39.2406-167.2625,70.7476-373.7612,70.7476s-374.0311-31.507-374.0311-70.7476   c0-39.2365,167.3995-71.0468,373.8942-71.0468s373.9231,31.8144,373.9231,71.0632L1617.9055,1074.8643z"/>
	<path fill="#8D8E90" d="M1616.8257,1074.9059c0,39.062-166.8055,70.4651-372.7103,70.4651s-372.9388-31.4031-372.9388-70.4651   c0-39.0579,166.9176-70.7228,372.8267-70.7228c205.88,0,372.8018,31.6898,372.8018,70.7311L1616.8257,1074.9059z"/>
	<path fill="#8C8D8F" d="M1615.7458,1074.9474c0,38.8833-166.3405,70.1785-371.6597,70.1785   c-205.3151,0-371.8589-31.2952-371.8589-70.1785c0-38.8793,166.4442-70.4028,371.7593-70.4028   c205.2983,0,371.7218,31.5238,371.7218,70.3988L1615.7458,1074.9474z"/>
	<path fill="#8B8C8E" d="M1614.6659,1074.989c0,38.7046-165.8794,69.8961-370.6046,69.8961s-370.7709-31.1915-370.7709-69.8961   c0-38.7007,165.9625-70.0789,370.6877-70.0789s370.6836,31.3575,370.6836,70.0665L1614.6659,1074.989z"/>
	<path fill="#8A8B8D" d="M1613.6276,1075.0305c0,38.5303-165.4183,69.6138-369.5538,69.6138s-369.6868-31.0792-369.6868-69.6138   c0-38.5221,165.4847-69.7592,369.6204-69.7592s369.6453,31.2331,369.6453,69.7757L1613.6276,1075.0305z"/>
	<path fill="#898A8C" d="M1612.5479,1075.0718c0,38.3518-164.9573,69.3274-368.5031,69.3274s-368.6027-30.9756-368.6027-69.3274   c0-38.3474,165.0071-69.4352,368.5529-69.4352s368.5654,31.0668,368.5654,69.4434L1612.5479,1075.0718z"/>
	<path fill="#888A8B" d="M1611.4679,1075.1134c0,38.1731-164.4963,69.0406-367.4482,69.0406   c-202.9559,0-367.5187-30.8676-367.5187-69.0406c0-38.1691,164.5295-69.1152,367.4814-69.1152s367.4856,30.9423,367.4856,69.1112   V1075.1134L1611.4679,1075.1134z"/>
	<path fill="#87898B" d="M1610.4296,1075.1549c0,37.9946-164.0311,68.7582-366.3973,68.7582s-366.4306-30.7594-366.4306-68.7582   c0-37.9902,164.0519-68.7872,366.4139-68.7872s366.4473,30.776,366.4473,68.7789L1610.4296,1075.1549z"/>
	<ellipse fill="#87888A" cx="1243.9825" cy="1075.1965" rx="365.3465" ry="68.4716"/>
	<path fill="#1A171B" d="M1701.5533,923.6005c0-66.0792-928.9309-66.0792-928.9309,0v95.5262   c0,66.0836,207.9525,119.6653,464.4655,119.6653c256.5212,0,464.4655-53.5818,464.4655-119.6653V923.6005z"/>
	
		<linearGradient id="SVGID_1_" gradientUnits="userSpaceOnUse" x1="47.2038" y1="1865.5164" x2="1015.3844" y2="1865.5164" gradientTransform="matrix(0.9595 0 0 0.9595 727.3323 -788.9963)">
		<stop offset="0" style="stop-color:#3C2516"/>
		<stop offset="0.2096" style="stop-color:#C3B4AD"/>
		<stop offset="0.26" style="stop-color:#C3B4AD"/>
		<stop offset="0.5449" style="stop-color:#4F331F"/>
		<stop offset="0.6527" style="stop-color:#4F331F"/>
		<stop offset="0.8323" style="stop-color:#725A4E"/>
		<stop offset="1" style="stop-color:#382C24"/>
	</linearGradient>
	<path fill="url(#SVGID_1_)" d="M1701.5533,918.0765c0-66.0792-928.9309-66.0792-928.9309,0v95.5263   c0,66.0876,207.9525,119.6653,464.4655,119.6653c256.5212,0,464.4655-53.5778,464.4655-119.6653V918.0765z"/>
	
		<linearGradient id="SVGID_2_" gradientUnits="userSpaceOnUse" x1="47.1994" y1="1848.7085" x2="1015.3801" y2="1848.7085" gradientTransform="matrix(0.9595 0 0 0.9595 727.3323 -788.9963)">
		<stop offset="0.0958" style="stop-color:#6C5344"/>
		<stop offset="0.503" style="stop-color:#D2C0B5"/>
		<stop offset="0.9" style="stop-color:#6C5344"/>
	</linearGradient>
	<path fill="url(#SVGID_2_)" d="M1237.0879,1037.7335c-253.0699,0-458.8585-52.1532-464.3409-117.0071   c-0.0748,0.9263-0.1288,1.8483-0.1288,2.7827c0,69.194,207.9524,125.2971,464.4655,125.2971   c256.5212,0,464.4656-56.1031,464.4656-125.2971c0-0.9344-0.0582-1.8567-0.1288-2.7827   c-5.4825,64.8333-211.2793,116.999-464.3408,116.999L1237.0879,1037.7335z"/>
	
		<radialGradient id="SVGID_3_" cx="-1397.074" cy="1601.4338" r="290.9115" gradientTransform="matrix(-4.193897e-008 -0.9595 1.5657 -6.844119e-008 -1270.3464 -302.7034)" gradientUnits="userSpaceOnUse">
		<stop offset="0" style="stop-color:#806959"/>
		<stop offset="0.9341" style="stop-color:#4F2E21"/>
	</radialGradient>
	<ellipse fill="url(#SVGID_3_)" cx="1237.0879" cy="918.0765" rx="464.4654" ry="119.6655"/>
	<path fill="#806D64" d="M1581.1072,868.4443c0-44.7437-688.0385-44.7437-688.0385,0v64.688   c0,44.7478,154.0257,81.0397,344.0275,81.0397s344.0319-36.2875,344.0319-81.0397v-64.6671L1581.1072,868.4443z"/>
	
		<linearGradient id="SVGID_4_" gradientUnits="userSpaceOnUse" x1="172.7392" y1="1782.0291" x2="889.8708" y2="1782.0291" gradientTransform="matrix(0.9595 0 0 0.9595 727.3323 -788.9963)">
		<stop offset="0" style="stop-color:#3C2516"/>
		<stop offset="0.2096" style="stop-color:#C3B4AD"/>
		<stop offset="0.26" style="stop-color:#C3B4AD"/>
		<stop offset="0.5449" style="stop-color:#4F331F"/>
		<stop offset="0.6108" style="stop-color:#4F331F"/>
		<stop offset="0.8323" style="stop-color:#725A4E"/>
		<stop offset="1" style="stop-color:#382C24"/>
	</linearGradient>
	<path fill="url(#SVGID_4_)" d="M1581.1072,864.7065c0-44.7478-688.0385-44.7478-688.0385,0v64.688   c0,44.7521,154.0257,81.0397,344.0275,81.0397s344.0319-36.2836,344.0319-81.0397v-64.6671L1581.1072,864.7065z"/>
	
		<linearGradient id="SVGID_5_" gradientUnits="userSpaceOnUse" x1="172.7304" y1="1770.6493" x2="889.8619" y2="1770.6493" gradientTransform="matrix(0.9595 0 0 0.9595 727.3323 -788.9963)">
		<stop offset="0.0958" style="stop-color:#6C5344"/>
		<stop offset="0.503" style="stop-color:#D2C0B5"/>
		<stop offset="0.9" style="stop-color:#6C5344"/>
	</linearGradient>
	<path fill="url(#SVGID_5_)" d="M1237.0879,945.7377c-187.4432,0-339.866-35.3115-343.9321-79.2329   c-0.054,0.6271-0.0956,1.2543-0.0956,1.8854c0,46.8536,154.0258,84.8481,344.0275,84.8481s344.0317-37.9903,344.0317-84.8481   c0-0.6311-0.0415-1.2584-0.0956-1.8854c-4.0702,43.9421-156.4969,79.2453-343.936,79.2453V945.7377z"/>
	
		<radialGradient id="SVGID_6_" cx="-1402.6779" cy="1580.3235" r="215.4768" gradientTransform="matrix(-4.193897e-008 -0.8772 1.5657 -6.257505e-008 -1237.2931 -284.7501)" gradientUnits="userSpaceOnUse">
		<stop offset="0" style="stop-color:#806959"/>
		<stop offset="1" style="stop-color:#4F2E21"/>
	</radialGradient>
	<ellipse fill="url(#SVGID_6_)" cx="1237.0879" cy="864.7065" rx="344.0276" ry="81.0353"/>
	<path fill="#643615" d="M1498.0408,886.1375c-0.702,13.1494-115.3003,31.1126-257.5181,32.5329   c-138.4426,1.3831-257.514-14.5658-257.514-32.5329c0-17.9672,115.2919-32.533,257.514-32.533   c142.2096,0,258.4608,14.5782,257.5056,32.5206L1498.0408,886.1375z"/>
	
		
	
		
	<defs>
		<filter id="Adobe_OpacityMaskFilter" filterUnits="userSpaceOnUse" x="1227.5769" y="579.6602" width="21.1986" height="32.9081">
			<feColorMatrix type="matrix" values="1 0 0 0 0  0 1 0 0 0  0 0 1 0 0  0 0 0 1 0"/>
		</filter>
	</defs>
	<mask maskUnits="userSpaceOnUse" x="1227.5769" y="579.6602" width="21.1986" height="32.9081" id="SVGID_7_">
		<g filter="url(#Adobe_OpacityMaskFilter)">
			
				<linearGradient id="SVGID_8_" gradientUnits="userSpaceOnUse" x1="535.9519" y1="1415.9276" x2="535.9519" y2="1464.921" gradientTransform="matrix(0.9595 0 0 0.9595 727.3323 -788.9963)">
				<stop offset="0.2455" style="stop-color:#FFFFFF"/>
				<stop offset="0.7964" style="stop-color:#1A171B"/>
			</linearGradient>
			<rect x="1220.0593" y="569.5302" fill="url(#SVGID_8_)" width="42.9951" height="47.0072"/>
		</g>
	</mask>
	
		<linearGradient id="SVGID_9_" gradientUnits="userSpaceOnUse" x1="532.4283" y1="1460.7842" x2="532.4283" y2="1426.4856" gradientTransform="matrix(0.9595 0 0 0.9595 727.3323 -788.9963)">
		<stop offset="0.1138" style="stop-color:#BC802F"/>
		<stop offset="0.8263" style="stop-color:#BC802F"/>
	</linearGradient>
	<path mask="url(#SVGID_7_)" fill="url(#SVGID_9_)" d="M1227.5769,581.1594c1.3331,17.934,2.6581,29.4096,3.9249,29.7212   c8.6017,2.1223,3.0984,2.5792,14.52-0.6064c0.9012-0.2533,1.8358-12.2025,2.7537-30.6141"/>
	
		<linearGradient id="SVGID_10_" gradientUnits="userSpaceOnUse" x1="588.9948" y1="1428.0482" x2="588.9948" y2="1001.3234" gradientTransform="matrix(0.9595 0 0 0.9595 727.3323 -788.9963)">
		<stop offset="0.1138" style="stop-color:#BC802F"/>
		<stop offset="0.7365" style="stop-color:#C68731"/>
		<stop offset="0.9641" style="stop-color:#A06E29"/>
	</linearGradient>
	<path fill="url(#SVGID_10_)" d="M1248.7587,579.6643c3.028-60.6717,5.8936-191.468,6.824-204.4637   c1.2128-16.9373,1.2128-36.3,20.9451-67.7572c13.328-21.2442,47.0696-49.8398,93.4496-70.6064   c46.3801-20.7666,91.373-44.9971,110.7566-65.07l-0.4778-0.0332c-59.272,42.0482-174.5142,73.4098-269.4879,73.4098   c-61.1451,0-90.7167-4.3403-106.6031-9.7437c23.3873,11.1309,85.413,43.884,100.3732,84.5034   c4.847,13.1535,10.9025,30.5351,12.3229,53.4864c2.7163,43.9172,6.7366,154.4204,10.699,207.7697"/>
	
		<radialGradient id="SVGID_11_" cx="581.768" cy="1021.5302" r="181.9743" fx="477.0542" fy="1040.7069" gradientTransform="matrix(0.9595 0 0 0.9595 727.3323 -788.9963)" gradientUnits="userSpaceOnUse">
		<stop offset="0.234" style="stop-color:#BC802F"/>
		<stop offset="0.4375" style="stop-color:#CF943F"/>
		<stop offset="0.7046" style="stop-color:#E2A850"/>
		<stop offset="0.8932" style="stop-color:#E9B057"/>
	</radialGradient>
	<path fill="url(#SVGID_11_)" d="M1283.6467,239.5907c-87.0287,13.2533-162.0916,1.1464-179.4608-4.2073   c-9.5526-2.9448-39.6267-13.9635-24.0518-32.6534c15.5748-18.6899,79.9513-69.5681,187.9375-96.0454   c107.9863-26.4774,233.6241-29.0732,249.199-7.2683c15.575,21.8049-15.5748,67.4914-68.5297,91.373   C1420.5815,203.4567,1385.9012,224.0158,1283.6467,239.5907z"/>
	<path opacity="0.3" fill="#FFFFFF" enable-background="new    " d="M970.9018-46.5729l-3.1233,14.8357   c0,0-12.6344,79.345,19.3835,138.4426c35.9968,66.4531,117.6802,107.9862,131.5231,117.676   c13.843,9.6897,31.8394,13.8431,38.7629,20.7666c6.9237,6.9236,16.6133-4.1533,1.3832-20.7666   c-15.2303-16.6132-96.897-92.7435-98.2676-231.1736l2.2427-33.6295l-91.9128-6.1053L970.9018-46.5729z"/>
	
		<linearGradient id="SVGID_12_" gradientUnits="userSpaceOnUse" x1="911.506" y1="1261.0497" x2="985.0957" y2="1261.0497" gradientTransform="matrix(0.9595 0 0 0.9595 727.3323 -788.9963)">
		<stop offset="0" style="stop-color:#3C2516"/>
		<stop offset="0.1737" style="stop-color:#806D64"/>
		<stop offset="0.26" style="stop-color:#806D64"/>
		<stop offset="0.5449" style="stop-color:#372314"/>
		<stop offset="0.6108" style="stop-color:#372314"/>
		<stop offset="0.8323" style="stop-color:#806959"/>
		<stop offset="0.982" style="stop-color:#372314"/>
	</linearGradient>
	<path fill="url(#SVGID_12_)" d="M1603.2443-62.2309c0,0,5.5365,202.1294,5.5365,509.4874s-6.8947,483.1555-6.8947,483.1555   s16.6133,5.5364,35.9968,5.5364c19.3834,0,34.6096-5.5364,34.6096-5.5364s-9.6897-235.356-9.6897-494.2447   s6.9236-530.254,6.9236-530.254l-66.4946,31.856L1603.2443-62.2309z"/>
	
		
	
		<linearGradient id="SVGID_13_" gradientUnits="userSpaceOnUse" x1="-904.7268" y1="1261.0713" x2="-831.1371" y2="1261.0713" gradientTransform="matrix(-0.9595 0 0 0.9595 12.5343 -788.9963)">
		<stop offset="0.018" style="stop-color:#372314"/>
		<stop offset="0.1677" style="stop-color:#725A4E"/>
		<stop offset="0.3892" style="stop-color:#372314"/>
		<stop offset="0.4551" style="stop-color:#372314"/>
		<stop offset="0.74" style="stop-color:#806D64"/>
		<stop offset="0.8263" style="stop-color:#806D64"/>
		<stop offset="1" style="stop-color:#3C2516"/>
	</linearGradient>
	<path fill="url(#SVGID_13_)" d="M879.1966-62.2309c0,0-5.5364,202.1294-5.5364,509.4874s6.9236,483.1555,6.9236,483.1555   s-16.6132,5.5364-35.9968,5.5364s-34.6096-5.5364-34.6096-5.5364s9.6897-235.356,9.6897-494.2447   c-0.0291-258.8763-6.9485-530.2125-6.9485-530.2125l66.4531,31.8145L879.1966-62.2309z"/>
	<path opacity="0.3" fill="#FFFFFF" enable-background="new    " d="M1316.6654,228.5012   c203.7494-69.5722,210.162-241.6857,209.3314-276.2827l-111.67,7.2019c-15.4503,196.2026-97.6445,269.0934-97.6445,269.0934   L1316.6654,228.5012z"/>
	<path opacity="0.2" fill="#FFFFFF" enable-background="new    " d="M1331.9081,222.9774   c188.814-72.7537,194.9193-237.0133,194.1095-270.7256l-4.8927,0.3156l-15.4669,18.4573   c-36.0094,186.8577-132.0754,230.3015-173.7748,251.9403L1331.9081,222.9774z"/>
	
		<linearGradient id="SVGID_14_" gradientUnits="userSpaceOnUse" x1="177.0679" y1="755.4385" x2="892.7061" y2="755.4385" gradientTransform="matrix(0.9595 0 0 0.9595 727.3323 -788.9963)">
		<stop offset="0" style="stop-color:#3C2516"/>
		<stop offset="0.26" style="stop-color:#806959"/>
		<stop offset="0.5449" style="stop-color:#4F331F"/>
		<stop offset="0.6108" style="stop-color:#4F331F"/>
		<stop offset="0.8323" style="stop-color:#806959"/>
		<stop offset="1" style="stop-color:#382C24"/>
	</linearGradient>
	<ellipse fill="url(#SVGID_14_)" cx="1240.5352" cy="-64.183" rx="343.3132" ry="73.9497"/>
	<path fill="#1A171B" d="M1701.5533-228.945c0-66.0793-928.9309-66.0793-928.9309,0v95.5263   c0,66.0835,207.9525,119.6654,464.4655,119.6654c256.5212,0,464.4655-53.5819,464.4655-119.6654V-228.945z"/>
	
		<linearGradient id="SVGID_15_" gradientUnits="userSpaceOnUse" x1="47.2038" y1="664.2728" x2="1015.3844" y2="664.2728" gradientTransform="matrix(0.9595 0 0 0.9595 727.3323 -788.9963)">
		<stop offset="0" style="stop-color:#3C2516"/>
		<stop offset="0.2096" style="stop-color:#C3B4AD"/>
		<stop offset="0.26" style="stop-color:#C3B4AD"/>
		<stop offset="0.5449" style="stop-color:#4F331F"/>
		<stop offset="0.6108" style="stop-color:#4F331F"/>
		<stop offset="0.8323" style="stop-color:#725A4E"/>
		<stop offset="1" style="stop-color:#382C24"/>
	</linearGradient>
	<path fill="url(#SVGID_15_)" d="M1701.5533-234.469c0-66.0793-928.9309-66.0793-928.9309,0v95.5263   c0,66.0835,207.9525,119.6654,464.4655,119.6654c256.5212,0,464.4655-53.5819,464.4655-119.6654V-234.469z"/>
	
		<linearGradient id="SVGID_16_" gradientUnits="userSpaceOnUse" x1="47.1994" y1="647.4697" x2="1015.3801" y2="647.4697" gradientTransform="matrix(0.9595 0 0 0.9595 727.3323 -788.9963)">
		<stop offset="0.0958" style="stop-color:#6C5344"/>
		<stop offset="0.503" style="stop-color:#D2C0B5"/>
		<stop offset="0.9" style="stop-color:#6C5344"/>
	</linearGradient>
	<path fill="url(#SVGID_16_)" d="M1237.0879-114.8118c-253.0699,0-458.8585-52.1491-464.3409-117.003   c-0.0748,0.9262-0.1288,1.8524-0.1288,2.7828c0,69.1943,207.9524,125.2973,464.4655,125.2973   c256.5212,0,464.4656-56.103,464.4656-125.2973c0-0.9304-0.0582-1.8565-0.1288-2.7828   c-5.4825,64.8332-211.2793,116.999-464.3408,116.999L1237.0879-114.8118z"/>
	
		<radialGradient id="SVGID_17_" cx="-473.3304" cy="1323.9291" r="290.8997" gradientTransform="matrix(-4.193897e-008 -0.9595 1.5657 -6.844119e-008 -835.8453 -568.9537)" gradientUnits="userSpaceOnUse">
		<stop offset="0" style="stop-color:#806959"/>
		<stop offset="0.1738" style="stop-color:#7E6656"/>
		<stop offset="0.3807" style="stop-color:#775C4C"/>
		<stop offset="0.6044" style="stop-color:#6D4E3E"/>
		<stop offset="0.8386" style="stop-color:#5D3C2D"/>
		<stop offset="1" style="stop-color:#4F2E21"/>
	</radialGradient>
	<ellipse fill="url(#SVGID_17_)" cx="1237.0879" cy="-234.469" rx="464.4654" ry="119.6654"/>
	<path opacity="0.5" fill="#1A171B" enable-background="new    " d="M920.7297,701.3564   c0-128.4081,150.9025-230.5881,225.6622-273.3838c74.7596-42.8041,60.9166-74.5603,60.9166-89.7491   c0-15.1888-2.7703-55.2266-105.2159-103.5548S951.161,122.82,933.1772,64.7982c-11.8162-38.0652-8.7883-91.4478-6.7159-114.4032   l-23.7404-1.5783c0,0-12.46,74.5603,20.7665,144.9757s96.9384,104.9129,142.625,128.3791   c45.6865,23.4662,132.9061,74.5603,132.9061,120.1222c0,45.5661-42.9163,71.7983-110.7565,113.2195   c-67.8362,41.4251-189.6695,121.5095-189.6695,272.0049c0,100.7969,87.2197,162.9263,87.2197,162.9263   s10.8318,4.7098,36.8066,9.2246c-24.7538-19.6452-101.8394-90.6255-101.8394-198.3625L920.7297,701.3564z"/>
	<path opacity="0.3" fill="#FFFFFF" enable-background="new    " d="M1432.9584,851.499   c-18.6483,2.6126-29.0731-5.5364-24.9198-30.4564c4.1533-24.9199,47.0695-199.3593-95.5265-353.032   s173.0564,102.4499,199.3594,199.3593c26.303,96.9093-9.6772,174.4393-78.9131,184.1166V851.499z"/>
	<path opacity="0.2" fill="#FFFFFF" enable-background="new    " d="M1368.7896,505.6521   c70.2534,71.4163,111.9734,141.084,118.1702,212.9613c5.4491,63.2135-20.8373,110.1043-32.2754,127.2079   c54.6866-21.4601,80.5826-92.2577,57.1952-178.4306c-16.4056-60.5554-90.0854-123.229-143.0818-161.7719L1368.7896,505.6521z"/>
	<path opacity="0.3" fill="#FFFFFF" enable-background="new    " d="M1034.24,844.6043c12.5388,0,33.2264-2.7662,29.0731-20.7665   c-4.1533-18.0004-11.0769-146.7532,17.9963-217.3596c29.0734-70.6063,83.0664-95.5264,98.2965-153.6727   c15.2302-58.1464-51.2229,45.6865-102.4498,76.1469c-52.1573,31.0128-124.5995,102.4498-124.5995,191.0527   s52.6226,124.5994,81.6957,124.5994h-0.0123V844.6043z"/>
	<path opacity="0.3" fill="#1A171B" enable-background="new    " d="M1405.2972,229.9135   c45.6865-23.5368,119.0631-65.07,152.2898-135.6764c33.2264-70.6064,20.7665-145.3661,20.7665-145.3661l-10.2628,0.6604   c8.1986,51.3391-5.7649,137.047-49.2667,189.005c-49.8397,59.5295-161.9794,101.0627-188.2823,120.4461   c-13.9635,10.292-67.8362,49.8399-67.8362,78.913c0,40.1501,20.7665,62.2998,42.9163,78.913   c22.1497,16.6133,74.7598,51.2229,148.1362,96.9094c73.3766,45.6865,112.1395,116.2928,112.1395,218.7428   c0,84.9187-68.4093,142.9778-92.4985,161.7385c15.6373-3.0069,23.429-4.9964,23.429-4.9964s82.9169-58.4496,82.9169-159.5123   c0-161.7136-113.2527-220.8071-197.9762-272.7358c-67.8196-41.5664-110.7565-67.8362-110.7565-113.5227   s88.5902-90.0025,134.2767-113.5101L1405.2972,229.9135z"/>
</g>
</svg>
